<?xml version="1.0" standalone="no"?>
<!DOCTYPE svg PUBLIC "-//W3C//DTD SVG 20010904//EN"
 "http://www.w3.org/TR/2001/REC-SVG-20010904/DTD/svg10.dtd">
<svg version="1.0" xmlns="http://www.w3.org/2000/svg"
 width="512.000000pt" height="512.000000pt" viewBox="0 0 512.000000 512.000000"
 preserveAspectRatio="xMidYMid meet">

<g transform="translate(0.000000,512.000000) scale(0.100000,-0.100000)"
fill="#000000" stroke="none">
<path d="M2710 4541 c-79 -25 -152 -94 -170 -160 -12 -41 -170 -1536 -170
-1602 0 -76 72 -191 131 -211 10 -3 0 -125 -47 -579 l-60 -574 -111 3 c-109 4
-113 3 -138 -22 -31 -31 -32 -70 -1 -100 19 -20 37 -25 112 -31 382 -28 695
-65 1056 -125 301 -50 660 -120 672 -131 6 -5 -2 -75 -18 -173 -29 -177 -28
-191 18 -221 30 -20 72 -11 91 19 8 11 26 93 41 181 15 88 28 161 29 162 3 7
564 -134 807 -203 81 -23 102 -25 123 -16 52 24 58 97 10 128 -36 23 -480 143
-817 220 -43 10 -82 20 -88 24 -6 4 13 141 53 375 61 362 63 369 87 375 70 19
132 71 161 135 19 43 129 675 129 742 0 48 -23 73 -67 73 -67 0 -68 -2 -133
-385 -33 -192 -64 -360 -69 -372 -14 -31 -66 -56 -102 -48 -39 9 -69 49 -69
93 0 48 249 1521 261 1543 24 46 94 64 136 34 44 -31 44 -64 -3 -336 -53 -304
-54 -330 -18 -358 34 -27 57 -26 89 2 25 21 30 41 77 317 44 262 49 301 40
348 -35 174 -244 255 -385 149 -82 -62 -82 -62 -223 -892 -69 -412 -127 -777
-127 -810 -1 -82 45 -167 109 -203 19 -10 18 -19 -40 -362 -32 -193 -60 -360
-63 -369 -4 -17 -14 -16 -146 11 -374 76 -857 153 -1159 184 -137 15 -168 21
-168 33 -1 9 25 267 57 574 l57 558 55 27 c62 30 115 92 130 150 5 20 46 388
91 817 89 858 88 833 29 914 -40 56 -106 92 -176 97 -32 2 -69 0 -83 -5z m128
-175 c19 -18 24 -34 24 -72 -1 -51 -148 -1479 -158 -1525 -11 -57 -77 -88
-130 -63 -62 30 -63 -1 25 842 44 424 85 782 91 797 12 31 65 57 100 49 14 -3
36 -16 48 -28z"/>
<path d="M172 4414 c-81 -40 -132 -121 -132 -207 0 -70 258 -1584 276 -1620
31 -62 112 -127 158 -127 8 0 18 -5 21 -10 4 -6 51 -271 104 -589 l98 -578
-91 -33 c-211 -76 -412 -198 -534 -324 -80 -83 -89 -110 -47 -151 39 -40 68
-33 143 38 265 248 632 385 1185 441 64 7 120 10 122 7 3 -2 5 -151 5 -331 l0
-327 23 -21 c31 -29 72 -28 102 3 l25 24 0 329 0 329 31 7 c17 3 67 6 111 6
71 0 81 2 105 26 20 20 24 31 19 57 -11 57 -35 67 -157 67 l-109 0 0 215 0
215 24 10 c37 14 95 69 119 114 l22 41 0 830 0 830 -22 41 c-28 52 -95 111
-142 124 -125 35 -251 -22 -302 -135 -18 -38 -19 -87 -19 -860 0 -777 1 -822
19 -861 22 -48 80 -107 121 -124 l30 -12 0 -219 0 -218 -42 -5 c-24 -3 -72 -8
-108 -11 -98 -9 -252 -32 -373 -56 -59 -12 -109 -20 -111 -18 -2 2 -47 259
-100 571 l-95 568 52 52 c55 56 77 104 77 173 0 20 -58 383 -130 805 -91 543
-135 780 -149 807 -63 122 -206 168 -329 107z m164 -139 c12 -8 26 -27 32 -42
6 -15 68 -369 138 -786 138 -830 136 -800 73 -832 -41 -22 -65 -18 -100 13
l-31 27 -129 765 c-71 421 -129 775 -129 788 0 13 13 37 29 53 33 33 82 39
117 14z m1269 -581 c13 -8 28 -29 34 -46 15 -43 15 -1543 0 -1586 -23 -66
-100 -83 -150 -33 l-29 29 0 797 0 797 29 29 c34 33 78 38 116 13z"/>
</g>
</svg>
