<svg xmlns="http://www.w3.org/2000/svg" xmlns:xlink="http://www.w3.org/1999/xlink" width="500" zoomAndPan="magnify" viewBox="0 0 375 374.999991" height="500" preserveAspectRatio="xMidYMid meet" version="1.0"><defs><g/><linearGradient x1="0" gradientTransform="matrix(0.75, 0, 0, 0.75, 0.0000045, 0)" y1="250" x2="499.999979" gradientUnits="userSpaceOnUse" y2="250" id="b01709cff2"><stop stop-opacity="1" stop-color="rgb(0%, 59.199524%, 69.799805%)" offset="0"/><stop stop-opacity="1" stop-color="rgb(0.192261%, 59.300232%, 69.659424%)" offset="0.0078125"/><stop stop-opacity="1" stop-color="rgb(0.576782%, 59.501648%, 69.380188%)" offset="0.015625"/><stop stop-opacity="1" stop-color="rgb(0.96283%, 59.70459%, 69.100952%)" offset="0.0234375"/><stop stop-opacity="1" stop-color="rgb(1.348877%, 59.907532%, 68.821716%)" offset="0.03125"/><stop stop-opacity="1" stop-color="rgb(1.734924%, 60.108948%, 68.544006%)" offset="0.0390625"/><stop stop-opacity="1" stop-color="rgb(2.120972%, 60.31189%, 68.264771%)" offset="0.046875"/><stop stop-opacity="1" stop-color="rgb(2.507019%, 60.513306%, 67.985535%)" offset="0.0546875"/><stop stop-opacity="1" stop-color="rgb(2.893066%, 60.716248%, 67.706299%)" offset="0.0625"/><stop stop-opacity="1" stop-color="rgb(3.279114%, 60.919189%, 67.428589%)" offset="0.0703125"/><stop stop-opacity="1" stop-color="rgb(3.665161%, 61.120605%, 67.149353%)" offset="0.078125"/><stop stop-opacity="1" stop-color="rgb(4.051208%, 61.323547%, 66.870117%)" offset="0.0859375"/><stop stop-opacity="1" stop-color="rgb(4.437256%, 61.524963%, 66.590881%)" offset="0.09375"/><stop stop-opacity="1" stop-color="rgb(4.823303%, 61.727905%, 66.311646%)" offset="0.101562"/><stop stop-opacity="1" stop-color="rgb(5.209351%, 61.930847%, 66.033936%)" offset="0.109375"/><stop stop-opacity="1" stop-color="rgb(5.593872%, 62.132263%, 65.7547%)" offset="0.117188"/><stop stop-opacity="1" stop-color="rgb(5.979919%, 62.335205%, 65.475464%)" offset="0.125"/><stop stop-opacity="1" stop-color="rgb(6.365967%, 62.538147%, 65.196228%)" offset="0.132812"/><stop stop-opacity="1" stop-color="rgb(6.752014%, 62.739563%, 64.918518%)" offset="0.140625"/><stop stop-opacity="1" stop-color="rgb(7.138062%, 62.942505%, 64.639282%)" offset="0.148437"/><stop stop-opacity="1" stop-color="rgb(7.524109%, 63.143921%, 64.360046%)" offset="0.15625"/><stop stop-opacity="1" stop-color="rgb(7.910156%, 63.346863%, 64.080811%)" offset="0.164062"/><stop stop-opacity="1" stop-color="rgb(8.296204%, 63.549805%, 63.801575%)" offset="0.171875"/><stop stop-opacity="1" stop-color="rgb(8.682251%, 63.751221%, 63.523865%)" offset="0.179687"/><stop stop-opacity="1" stop-color="rgb(9.068298%, 63.954163%, 63.244629%)" offset="0.1875"/><stop stop-opacity="1" stop-color="rgb(9.454346%, 64.155579%, 62.965393%)" offset="0.195312"/><stop stop-opacity="1" stop-color="rgb(9.840393%, 64.358521%, 62.686157%)" offset="0.203125"/><stop stop-opacity="1" stop-color="rgb(10.22644%, 64.561462%, 62.406921%)" offset="0.210938"/><stop stop-opacity="1" stop-color="rgb(10.612488%, 64.762878%, 62.129211%)" offset="0.21875"/><stop stop-opacity="1" stop-color="rgb(10.997009%, 64.96582%, 61.849976%)" offset="0.226562"/><stop stop-opacity="1" stop-color="rgb(11.383057%, 65.167236%, 61.57074%)" offset="0.234375"/><stop stop-opacity="1" stop-color="rgb(11.769104%, 65.370178%, 61.291504%)" offset="0.242188"/><stop stop-opacity="1" stop-color="rgb(12.155151%, 65.57312%, 61.013794%)" offset="0.25"/><stop stop-opacity="1" stop-color="rgb(12.541199%, 65.774536%, 60.734558%)" offset="0.257812"/><stop stop-opacity="1" stop-color="rgb(12.927246%, 65.977478%, 60.455322%)" offset="0.265625"/><stop stop-opacity="1" stop-color="rgb(13.313293%, 66.178894%, 60.176086%)" offset="0.273437"/><stop stop-opacity="1" stop-color="rgb(13.699341%, 66.381836%, 59.896851%)" offset="0.28125"/><stop stop-opacity="1" stop-color="rgb(14.085388%, 66.584778%, 59.619141%)" offset="0.289062"/><stop stop-opacity="1" stop-color="rgb(14.471436%, 66.786194%, 59.339905%)" offset="0.296875"/><stop stop-opacity="1" stop-color="rgb(14.857483%, 66.989136%, 59.060669%)" offset="0.304687"/><stop stop-opacity="1" stop-color="rgb(15.24353%, 67.192078%, 58.781433%)" offset="0.3125"/><stop stop-opacity="1" stop-color="rgb(15.629578%, 67.393494%, 58.502197%)" offset="0.320312"/><stop stop-opacity="1" stop-color="rgb(16.015625%, 67.596436%, 58.224487%)" offset="0.328125"/><stop stop-opacity="1" stop-color="rgb(16.400146%, 67.797852%, 57.945251%)" offset="0.335937"/><stop stop-opacity="1" stop-color="rgb(16.786194%, 68.000793%, 57.666016%)" offset="0.34375"/><stop stop-opacity="1" stop-color="rgb(17.172241%, 68.203735%, 57.38678%)" offset="0.351562"/><stop stop-opacity="1" stop-color="rgb(17.558289%, 68.405151%, 57.10907%)" offset="0.359375"/><stop stop-opacity="1" stop-color="rgb(17.944336%, 68.608093%, 56.829834%)" offset="0.367187"/><stop stop-opacity="1" stop-color="rgb(18.330383%, 68.809509%, 56.550598%)" offset="0.375"/><stop stop-opacity="1" stop-color="rgb(18.716431%, 69.012451%, 56.271362%)" offset="0.382812"/><stop stop-opacity="1" stop-color="rgb(19.102478%, 69.215393%, 55.992126%)" offset="0.390625"/><stop stop-opacity="1" stop-color="rgb(19.488525%, 69.416809%, 55.714417%)" offset="0.398438"/><stop stop-opacity="1" stop-color="rgb(19.874573%, 69.619751%, 55.435181%)" offset="0.40625"/><stop stop-opacity="1" stop-color="rgb(20.26062%, 69.821167%, 55.155945%)" offset="0.414062"/><stop stop-opacity="1" stop-color="rgb(20.646667%, 70.024109%, 54.876709%)" offset="0.421875"/><stop stop-opacity="1" stop-color="rgb(21.032715%, 70.227051%, 54.598999%)" offset="0.429688"/><stop stop-opacity="1" stop-color="rgb(21.418762%, 70.428467%, 54.319763%)" offset="0.4375"/><stop stop-opacity="1" stop-color="rgb(21.803284%, 70.631409%, 54.040527%)" offset="0.445312"/><stop stop-opacity="1" stop-color="rgb(22.189331%, 70.832825%, 53.761292%)" offset="0.453125"/><stop stop-opacity="1" stop-color="rgb(22.575378%, 71.035767%, 53.482056%)" offset="0.460938"/><stop stop-opacity="1" stop-color="rgb(22.961426%, 71.238708%, 53.204346%)" offset="0.46875"/><stop stop-opacity="1" stop-color="rgb(23.347473%, 71.440125%, 52.92511%)" offset="0.476562"/><stop stop-opacity="1" stop-color="rgb(23.733521%, 71.643066%, 52.645874%)" offset="0.484375"/><stop stop-opacity="1" stop-color="rgb(24.119568%, 71.846008%, 52.366638%)" offset="0.492188"/><stop stop-opacity="1" stop-color="rgb(24.505615%, 72.047424%, 52.087402%)" offset="0.5"/><stop stop-opacity="1" stop-color="rgb(24.891663%, 72.250366%, 51.809692%)" offset="0.507812"/><stop stop-opacity="1" stop-color="rgb(25.27771%, 72.451782%, 51.530457%)" offset="0.515625"/><stop stop-opacity="1" stop-color="rgb(25.663757%, 72.654724%, 51.251221%)" offset="0.523437"/><stop stop-opacity="1" stop-color="rgb(26.049805%, 72.857666%, 50.971985%)" offset="0.53125"/><stop stop-opacity="1" stop-color="rgb(26.435852%, 73.059082%, 50.694275%)" offset="0.539062"/><stop stop-opacity="1" stop-color="rgb(26.821899%, 73.262024%, 50.415039%)" offset="0.546875"/><stop stop-opacity="1" stop-color="rgb(27.206421%, 73.46344%, 50.135803%)" offset="0.554687"/><stop stop-opacity="1" stop-color="rgb(27.592468%, 73.666382%, 49.856567%)" offset="0.5625"/><stop stop-opacity="1" stop-color="rgb(27.978516%, 73.869324%, 49.577332%)" offset="0.570312"/><stop stop-opacity="1" stop-color="rgb(28.364563%, 74.07074%, 49.299622%)" offset="0.578125"/><stop stop-opacity="1" stop-color="rgb(28.75061%, 74.273682%, 49.020386%)" offset="0.585937"/><stop stop-opacity="1" stop-color="rgb(29.136658%, 74.475098%, 48.74115%)" offset="0.59375"/><stop stop-opacity="1" stop-color="rgb(29.522705%, 74.67804%, 48.461914%)" offset="0.601562"/><stop stop-opacity="1" stop-color="rgb(29.908752%, 74.880981%, 48.182678%)" offset="0.609375"/><stop stop-opacity="1" stop-color="rgb(30.2948%, 75.082397%, 47.904968%)" offset="0.617187"/><stop stop-opacity="1" stop-color="rgb(30.680847%, 75.285339%, 47.625732%)" offset="0.625"/><stop stop-opacity="1" stop-color="rgb(31.066895%, 75.486755%, 47.346497%)" offset="0.632812"/><stop stop-opacity="1" stop-color="rgb(31.452942%, 75.689697%, 47.067261%)" offset="0.640625"/><stop stop-opacity="1" stop-color="rgb(31.838989%, 75.892639%, 46.789551%)" offset="0.648437"/><stop stop-opacity="1" stop-color="rgb(32.225037%, 76.094055%, 46.510315%)" offset="0.65625"/><stop stop-opacity="1" stop-color="rgb(32.609558%, 76.296997%, 46.231079%)" offset="0.664062"/><stop stop-opacity="1" stop-color="rgb(32.995605%, 76.498413%, 45.951843%)" offset="0.671875"/><stop stop-opacity="1" stop-color="rgb(33.381653%, 76.701355%, 45.672607%)" offset="0.679687"/><stop stop-opacity="1" stop-color="rgb(33.7677%, 76.904297%, 45.394897%)" offset="0.6875"/><stop stop-opacity="1" stop-color="rgb(34.153748%, 77.105713%, 45.115662%)" offset="0.695312"/><stop stop-opacity="1" stop-color="rgb(34.539795%, 77.308655%, 44.836426%)" offset="0.703125"/><stop stop-opacity="1" stop-color="rgb(34.925842%, 77.511597%, 44.55719%)" offset="0.710937"/><stop stop-opacity="1" stop-color="rgb(35.31189%, 77.713013%, 44.27948%)" offset="0.71875"/><stop stop-opacity="1" stop-color="rgb(35.697937%, 77.915955%, 44.000244%)" offset="0.726562"/><stop stop-opacity="1" stop-color="rgb(36.083984%, 78.117371%, 43.721008%)" offset="0.734375"/><stop stop-opacity="1" stop-color="rgb(36.470032%, 78.320312%, 43.441772%)" offset="0.742187"/><stop stop-opacity="1" stop-color="rgb(36.856079%, 78.523254%, 43.162537%)" offset="0.75"/><stop stop-opacity="1" stop-color="rgb(37.242126%, 78.72467%, 42.884827%)" offset="0.757812"/><stop stop-opacity="1" stop-color="rgb(37.628174%, 78.927612%, 42.605591%)" offset="0.765625"/><stop stop-opacity="1" stop-color="rgb(38.012695%, 79.129028%, 42.326355%)" offset="0.773438"/><stop stop-opacity="1" stop-color="rgb(38.398743%, 79.33197%, 42.047119%)" offset="0.78125"/><stop stop-opacity="1" stop-color="rgb(38.78479%, 79.534912%, 41.767883%)" offset="0.789062"/><stop stop-opacity="1" stop-color="rgb(39.170837%, 79.736328%, 41.490173%)" offset="0.796875"/><stop stop-opacity="1" stop-color="rgb(39.556885%, 79.93927%, 41.210938%)" offset="0.804688"/><stop stop-opacity="1" stop-color="rgb(39.942932%, 80.140686%, 40.931702%)" offset="0.8125"/><stop stop-opacity="1" stop-color="rgb(40.328979%, 80.343628%, 40.652466%)" offset="0.820312"/><stop stop-opacity="1" stop-color="rgb(40.715027%, 80.54657%, 40.374756%)" offset="0.828125"/><stop stop-opacity="1" stop-color="rgb(41.101074%, 80.747986%, 40.09552%)" offset="0.835938"/><stop stop-opacity="1" stop-color="rgb(41.487122%, 80.950928%, 39.816284%)" offset="0.84375"/><stop stop-opacity="1" stop-color="rgb(41.873169%, 81.152344%, 39.537048%)" offset="0.851562"/><stop stop-opacity="1" stop-color="rgb(42.259216%, 81.355286%, 39.257812%)" offset="0.859375"/><stop stop-opacity="1" stop-color="rgb(42.645264%, 81.558228%, 38.980103%)" offset="0.867188"/><stop stop-opacity="1" stop-color="rgb(43.031311%, 81.759644%, 38.700867%)" offset="0.875"/><stop stop-opacity="1" stop-color="rgb(43.415833%, 81.962585%, 38.421631%)" offset="0.882812"/><stop stop-opacity="1" stop-color="rgb(43.80188%, 82.165527%, 38.142395%)" offset="0.890625"/><stop stop-opacity="1" stop-color="rgb(44.187927%, 82.366943%, 37.863159%)" offset="0.898438"/><stop stop-opacity="1" stop-color="rgb(44.573975%, 82.569885%, 37.585449%)" offset="0.90625"/><stop stop-opacity="1" stop-color="rgb(44.960022%, 82.771301%, 37.306213%)" offset="0.914062"/><stop stop-opacity="1" stop-color="rgb(45.346069%, 82.974243%, 37.026978%)" offset="0.921875"/><stop stop-opacity="1" stop-color="rgb(45.732117%, 83.177185%, 36.747742%)" offset="0.929688"/><stop stop-opacity="1" stop-color="rgb(46.118164%, 83.378601%, 36.470032%)" offset="0.9375"/><stop stop-opacity="1" stop-color="rgb(46.504211%, 83.581543%, 36.190796%)" offset="0.945312"/><stop stop-opacity="1" stop-color="rgb(46.890259%, 83.782959%, 35.91156%)" offset="0.953125"/><stop stop-opacity="1" stop-color="rgb(47.276306%, 83.985901%, 35.632324%)" offset="0.960938"/><stop stop-opacity="1" stop-color="rgb(47.662354%, 84.188843%, 35.353088%)" offset="0.96875"/><stop stop-opacity="1" stop-color="rgb(48.048401%, 84.390259%, 35.075378%)" offset="0.976562"/><stop stop-opacity="1" stop-color="rgb(48.432922%, 84.593201%, 34.796143%)" offset="0.984375"/><stop stop-opacity="1" stop-color="rgb(48.81897%, 84.794617%, 34.516907%)" offset="0.992188"/><stop stop-opacity="1" stop-color="rgb(49.205017%, 84.997559%, 34.237671%)" offset="1"/></linearGradient><clipPath id="c27447ffd6"><path d="M 149.019531 110 L 220 110 L 220 279.792969 L 149.019531 279.792969 Z M 149.019531 110 " clip-rule="nonzero"/></clipPath><clipPath id="70cd56ce39"><path d="M 199 100.542969 L 227 100.542969 L 227 128 L 199 128 Z M 199 100.542969 " clip-rule="nonzero"/></clipPath></defs><rect x="-37.5" width="450" fill="#ffffff" y="-37.499999" height="449.999989" fill-opacity="1"/><rect x="-37.5" fill="url(#b01709cff2)" width="450" y="-37.499999" height="449.999989"/><g fill="#000000" fill-opacity="1"><g transform="translate(104.756392, 117.544254)"><g><path d="M 5.015625 -5.140625 C 4.554688 -4.617188 3.984375 -4.15625 3.296875 -3.75 C 2.617188 -3.351562 1.972656 -3.101562 1.359375 -3 L 1.984375 -2.015625 L 1.015625 -0.921875 L -2.734375 -3.71875 L -1.78125 -5.140625 C -0.914062 -4.835938 -0.03125 -4.726562 0.875 -4.8125 C 1.78125 -4.90625 2.578125 -5.34375 3.265625 -6.125 C 3.734375 -6.644531 4.003906 -7.128906 4.078125 -7.578125 C 4.160156 -8.023438 4.125 -8.421875 3.96875 -8.765625 C 3.8125 -9.109375 3.609375 -9.382812 3.359375 -9.59375 C 2.804688 -10.09375 2.179688 -10.226562 1.484375 -10 C 0.796875 -9.78125 -0.0078125 -9.410156 -0.9375 -8.890625 C -1.8125 -8.398438 -2.628906 -8.023438 -3.390625 -7.765625 C -4.148438 -7.503906 -4.882812 -7.4375 -5.59375 -7.5625 C -6.300781 -7.695312 -7.015625 -8.085938 -7.734375 -8.734375 C -8.140625 -9.097656 -8.488281 -9.539062 -8.78125 -10.0625 C -9.082031 -10.582031 -9.269531 -11.160156 -9.34375 -11.796875 C -9.414062 -12.429688 -9.332031 -13.085938 -9.09375 -13.765625 C -8.863281 -14.453125 -8.4375 -15.148438 -7.8125 -15.859375 C -7.21875 -16.523438 -6.632812 -16.984375 -6.0625 -17.234375 C -5.488281 -17.484375 -5.007812 -17.644531 -4.625 -17.71875 L -5.28125 -18.703125 L -4.375 -19.71875 L -0.40625 -16.875 L -1.296875 -15.40625 C -2.472656 -15.90625 -3.453125 -16.085938 -4.234375 -15.953125 C -5.015625 -15.828125 -5.6875 -15.445312 -6.25 -14.8125 C -6.695312 -14.3125 -6.941406 -13.769531 -6.984375 -13.1875 C -7.035156 -12.613281 -6.789062 -12.085938 -6.25 -11.609375 C -5.851562 -11.253906 -5.4375 -11.082031 -5 -11.09375 C -4.570312 -11.101562 -4.09375 -11.226562 -3.5625 -11.46875 C -3.039062 -11.71875 -2.457031 -12 -1.8125 -12.3125 C -1.25 -12.601562 -0.6875 -12.867188 -0.125 -13.109375 C 0.4375 -13.359375 0.984375 -13.535156 1.515625 -13.640625 C 2.054688 -13.753906 2.617188 -13.738281 3.203125 -13.59375 C 3.785156 -13.445312 4.367188 -13.113281 4.953125 -12.59375 C 5.722656 -11.90625 6.21875 -11.117188 6.4375 -10.234375 C 6.65625 -9.359375 6.640625 -8.476562 6.390625 -7.59375 C 6.140625 -6.707031 5.679688 -5.890625 5.015625 -5.140625 Z M 5.015625 -5.140625 "/></g></g></g><g fill="#000000" fill-opacity="1"><g transform="translate(114.612399, 106.421792)"><g><path d="M 0.21875 -0.171875 L -0.65625 -1.234375 L 0.078125 -2.046875 C 0.242188 -2.265625 0.316406 -2.484375 0.296875 -2.703125 C 0.285156 -2.921875 0.203125 -3.238281 0.046875 -3.65625 L -4.671875 -16.953125 L -2.40625 -18.8125 L 9.703125 -11.5 C 10.035156 -11.28125 10.300781 -11.132812 10.5 -11.0625 C 10.707031 -11 10.953125 -11.046875 11.234375 -11.203125 L 12.03125 -11.65625 L 12.90625 -10.59375 L 7.421875 -6.09375 L 6.546875 -7.15625 L 7.28125 -7.953125 C 7.476562 -8.191406 7.539062 -8.390625 7.46875 -8.546875 C 7.40625 -8.703125 7.210938 -8.894531 6.890625 -9.125 L 4.90625 -10.40625 L 0.96875 -7.171875 L 1.78125 -5.0625 C 1.925781 -4.695312 2.082031 -4.460938 2.25 -4.359375 C 2.414062 -4.265625 2.65625 -4.289062 2.96875 -4.4375 L 3.859375 -4.953125 L 4.734375 -3.890625 Z M 0.359375 -8.6875 L 3.578125 -11.3125 L -1.859375 -14.84375 L -1.9375 -14.78125 Z M 0.359375 -8.6875 "/></g></g></g><g fill="#000000" fill-opacity="1"><g transform="translate(128.410169, 94.901961)"><g><path d="M 0.859375 -0.453125 L 0.203125 -1.65625 L 1.140625 -2.453125 C 1.398438 -2.660156 1.53125 -2.835938 1.53125 -2.984375 C 1.539062 -3.128906 1.46875 -3.351562 1.3125 -3.65625 L -3.171875 -13.4375 C -3.316406 -13.769531 -3.46875 -13.976562 -3.625 -14.0625 C -3.78125 -14.15625 -4.015625 -14.148438 -4.328125 -14.046875 L -5.578125 -13.671875 L -6.234375 -14.875 L -0.65625 -17.875 L 6.8125 -10.78125 L 6.875 -10.8125 L 5.359375 -21.109375 L 10.59375 -23.9375 L 11.25 -22.734375 L 10.265625 -21.890625 C 9.992188 -21.691406 9.875 -21.492188 9.90625 -21.296875 C 9.9375 -21.109375 10.039062 -20.863281 10.21875 -20.5625 L 15.828125 -11.546875 C 16.015625 -11.265625 16.171875 -11.066406 16.296875 -10.953125 C 16.421875 -10.847656 16.644531 -10.851562 16.96875 -10.96875 L 18.125 -11.3125 L 18.78125 -10.109375 L 12.34375 -6.640625 L 11.6875 -7.84375 L 12.734375 -8.703125 C 12.953125 -8.910156 13.054688 -9.097656 13.046875 -9.265625 C 13.035156 -9.429688 12.914062 -9.6875 12.6875 -10.03125 L 7.515625 -18.53125 L 7.46875 -18.5 L 8.984375 -7.78125 L 6.703125 -6.546875 L -1.0625 -13.734375 L -1.140625 -13.6875 L 3.078125 -4.71875 C 3.234375 -4.40625 3.378906 -4.195312 3.515625 -4.09375 C 3.648438 -3.988281 3.878906 -3.988281 4.203125 -4.09375 L 5.390625 -4.453125 L 6.046875 -3.25 Z M 0.859375 -0.453125 "/></g></g></g><g fill="#000000" fill-opacity="1"><g transform="translate(148.861941, 84.287736)"><g><path d="M 0.265625 -0.078125 L -0.140625 -1.390625 L 0.84375 -1.875 C 1.082031 -2 1.234375 -2.164062 1.296875 -2.375 C 1.367188 -2.582031 1.410156 -2.914062 1.421875 -3.375 L 2.078125 -17.453125 L 4.859375 -18.3125 L 13.328125 -6.984375 C 13.554688 -6.660156 13.75 -6.425781 13.90625 -6.28125 C 14.070312 -6.144531 14.3125 -6.09375 14.625 -6.125 L 15.546875 -6.25 L 15.953125 -4.9375 L 9.1875 -2.84375 L 8.78125 -4.15625 L 9.75 -4.625 C 10.019531 -4.75 10.15625 -4.898438 10.15625 -5.078125 C 10.15625 -5.253906 10.039062 -5.507812 9.8125 -5.84375 L 8.46875 -7.78125 L 3.609375 -6.28125 L 3.5625 -4.015625 C 3.550781 -3.617188 3.601562 -3.34375 3.71875 -3.1875 C 3.84375 -3.03125 4.070312 -2.972656 4.40625 -3.015625 L 5.4375 -3.125 L 5.84375 -1.8125 Z M 3.59375 -7.890625 L 7.578125 -9.125 L 3.890625 -14.453125 L 3.796875 -14.421875 Z M 3.59375 -7.890625 "/></g></g></g><g fill="#000000" fill-opacity="1"><g transform="translate(166.178271, 79.003638)"><g><path d="M 1.125 -0.140625 L 0.953125 -1.5 L 2.234375 -1.921875 C 2.484375 -2.003906 2.632812 -2.132812 2.6875 -2.3125 C 2.738281 -2.5 2.738281 -2.796875 2.6875 -3.203125 L 1.375 -13.625 C 1.332031 -13.976562 1.273438 -14.226562 1.203125 -14.375 C 1.128906 -14.519531 0.921875 -14.597656 0.578125 -14.609375 L -0.71875 -14.71875 L -0.890625 -16.078125 L 6.390625 -17 C 7.992188 -17.195312 9.4375 -17.125 10.71875 -16.78125 C 12.007812 -16.445312 13.0625 -15.785156 13.875 -14.796875 C 14.695312 -13.804688 15.21875 -12.441406 15.4375 -10.703125 C 15.59375 -9.460938 15.570312 -8.289062 15.375 -7.1875 C 15.1875 -6.082031 14.78125 -5.097656 14.15625 -4.234375 C 13.53125 -3.378906 12.648438 -2.664062 11.515625 -2.09375 C 10.390625 -1.519531 8.96875 -1.128906 7.25 -0.921875 Z M 7.625 -2.59375 C 8.71875 -2.738281 9.582031 -3.046875 10.21875 -3.515625 C 10.851562 -3.984375 11.3125 -4.566406 11.59375 -5.265625 C 11.875 -5.960938 12.03125 -6.726562 12.0625 -7.5625 C 12.09375 -8.40625 12.050781 -9.28125 11.9375 -10.1875 C 11.789062 -11.320312 11.472656 -12.296875 10.984375 -13.109375 C 10.492188 -13.929688 9.796875 -14.539062 8.890625 -14.9375 C 7.984375 -15.332031 6.832031 -15.441406 5.4375 -15.265625 L 4.609375 -15.15625 L 6.203125 -2.546875 C 6.328125 -2.535156 6.535156 -2.53125 6.828125 -2.53125 C 7.117188 -2.539062 7.382812 -2.5625 7.625 -2.59375 Z M 7.625 -2.59375 "/></g></g></g><g fill="#000000" fill-opacity="1"><g transform="translate(185.315992, 77.083078)"><g/></g></g><g fill="#000000" fill-opacity="1"><g transform="translate(191.057381, 76.735298)"><g><path d="M 1.140625 0.125 L 1.296875 -1.234375 L 2.609375 -1.34375 C 2.878906 -1.363281 3.0625 -1.453125 3.15625 -1.609375 C 3.257812 -1.773438 3.332031 -2.0625 3.375 -2.46875 L 4.53125 -12.921875 C 4.570312 -13.273438 4.570312 -13.53125 4.53125 -13.6875 C 4.488281 -13.84375 4.304688 -13.96875 3.984375 -14.0625 L 2.765625 -14.46875 L 2.90625 -15.84375 L 10.1875 -15.03125 C 11.789062 -14.851562 13.175781 -14.445312 14.34375 -13.8125 C 15.519531 -13.175781 16.390625 -12.28125 16.953125 -11.125 C 17.515625 -9.976562 17.695312 -8.53125 17.5 -6.78125 C 17.363281 -5.53125 17.070312 -4.394531 16.625 -3.375 C 16.1875 -2.351562 15.5625 -1.5 14.75 -0.8125 C 13.945312 -0.125 12.925781 0.363281 11.6875 0.65625 C 10.457031 0.945312 8.984375 1 7.265625 0.8125 Z M 8.015625 -0.734375 C 9.109375 -0.617188 10.019531 -0.710938 10.75 -1.015625 C 11.476562 -1.328125 12.0625 -1.785156 12.5 -2.390625 C 12.9375 -3.003906 13.269531 -3.71875 13.5 -4.53125 C 13.726562 -5.34375 13.894531 -6.203125 14 -7.109375 C 14.125 -8.242188 14.039062 -9.265625 13.75 -10.171875 C 13.457031 -11.085938 12.914062 -11.835938 12.125 -12.421875 C 11.34375 -13.015625 10.253906 -13.390625 8.859375 -13.546875 L 8.015625 -13.640625 L 6.609375 -1.015625 C 6.734375 -0.984375 6.9375 -0.9375 7.21875 -0.875 C 7.507812 -0.8125 7.773438 -0.765625 8.015625 -0.734375 Z M 8.015625 -0.734375 "/></g></g></g><g fill="#000000" fill-opacity="1"><g transform="translate(209.699637, 78.906082)"><g><path d="M 8.328125 2.796875 C 6.628906 2.296875 5.332031 1.539062 4.4375 0.53125 C 3.539062 -0.46875 2.992188 -1.628906 2.796875 -2.953125 C 2.609375 -4.285156 2.726562 -5.679688 3.15625 -7.140625 C 3.59375 -8.585938 4.164062 -9.769531 4.875 -10.6875 C 5.582031 -11.613281 6.390625 -12.304688 7.296875 -12.765625 C 8.210938 -13.234375 9.179688 -13.488281 10.203125 -13.53125 C 11.234375 -13.582031 12.265625 -13.453125 13.296875 -13.140625 C 14.671875 -12.734375 15.820312 -12.085938 16.75 -11.203125 C 17.675781 -10.316406 18.289062 -9.21875 18.59375 -7.90625 C 18.894531 -6.601562 18.789062 -5.097656 18.28125 -3.390625 C 17.820312 -1.816406 17.125 -0.484375 16.1875 0.609375 C 15.25 1.710938 14.113281 2.472656 12.78125 2.890625 C 11.457031 3.316406 9.972656 3.285156 8.328125 2.796875 Z M 9.0625 1 C 10.28125 1.363281 11.378906 1.148438 12.359375 0.359375 C 13.347656 -0.421875 14.160156 -1.875 14.796875 -4 C 15.160156 -5.226562 15.316406 -6.351562 15.265625 -7.375 C 15.222656 -8.40625 14.960938 -9.269531 14.484375 -9.96875 C 14.015625 -10.664062 13.328125 -11.148438 12.421875 -11.421875 C 11.140625 -11.796875 10.019531 -11.578125 9.0625 -10.765625 C 8.101562 -9.960938 7.328125 -8.554688 6.734375 -6.546875 C 6.367188 -5.328125 6.191406 -4.191406 6.203125 -3.140625 C 6.222656 -2.097656 6.460938 -1.21875 6.921875 -0.5 C 7.390625 0.21875 8.101562 0.71875 9.0625 1 Z M 9.0625 1 "/></g></g></g><g fill="#000000" fill-opacity="1"><g transform="translate(227.59704, 84.276526)"><g><path d="M 8.09375 4.4375 C 6.664062 3.726562 5.65625 2.921875 5.0625 2.015625 C 4.46875 1.117188 4.203125 0.160156 4.265625 -0.859375 C 4.335938 -1.890625 4.65625 -2.957031 5.21875 -4.0625 L 8.546875 -10.6875 C 8.703125 -11 8.773438 -11.238281 8.765625 -11.40625 C 8.765625 -11.570312 8.625 -11.765625 8.34375 -11.984375 L 7.328125 -12.71875 L 7.953125 -13.96875 L 14.53125 -10.65625 L 13.90625 -9.40625 L 12.671875 -9.796875 C 12.347656 -9.890625 12.113281 -9.867188 11.96875 -9.734375 C 11.832031 -9.609375 11.679688 -9.382812 11.515625 -9.0625 L 8.375 -2.8125 C 7.957031 -1.988281 7.671875 -1.238281 7.515625 -0.5625 C 7.367188 0.101562 7.4375 0.707031 7.71875 1.25 C 8 1.789062 8.578125 2.28125 9.453125 2.71875 C 10.335938 3.164062 11.101562 3.316406 11.75 3.171875 C 12.394531 3.023438 12.945312 2.691406 13.40625 2.171875 C 13.875 1.660156 14.28125 1.054688 14.625 0.359375 L 17.828125 -6 C 17.984375 -6.3125 18.0625 -6.550781 18.0625 -6.71875 C 18.0625 -6.894531 17.925781 -7.085938 17.65625 -7.296875 L 16.65625 -8.03125 L 17.28125 -9.28125 L 22.75 -6.515625 L 22.125 -5.265625 L 20.90625 -5.65625 C 20.570312 -5.75 20.332031 -5.726562 20.1875 -5.59375 C 20.050781 -5.46875 19.898438 -5.242188 19.734375 -4.921875 L 16.5625 1.390625 C 15.550781 3.390625 14.320312 4.617188 12.875 5.078125 C 11.4375 5.535156 9.84375 5.320312 8.09375 4.4375 Z M 8.09375 4.4375 "/></g></g></g><g fill="#000000" fill-opacity="1"><g transform="translate(244.70763, 93.082962)"><g><path d="M 6.90625 5.578125 C 5.59375 4.585938 4.660156 3.484375 4.109375 2.265625 C 3.554688 1.046875 3.390625 -0.234375 3.609375 -1.578125 C 3.828125 -2.921875 4.445312 -4.269531 5.46875 -5.625 C 6.507812 -7.019531 7.660156 -8.046875 8.921875 -8.703125 C 10.191406 -9.367188 11.488281 -9.644531 12.8125 -9.53125 C 14.132812 -9.425781 15.410156 -8.914062 16.640625 -8 C 17.472656 -7.382812 18.046875 -6.753906 18.359375 -6.109375 C 18.671875 -5.472656 18.863281 -4.9375 18.9375 -4.5 L 20.015625 -5.5625 L 21.078125 -4.765625 L 18.578125 0.09375 L 16.953125 -0.609375 C 17.410156 -1.753906 17.5625 -2.800781 17.40625 -3.75 C 17.257812 -4.707031 16.71875 -5.535156 15.78125 -6.234375 C 14.988281 -6.816406 14.171875 -7.078125 13.328125 -7.015625 C 12.492188 -6.960938 11.664062 -6.644531 10.84375 -6.0625 C 10.019531 -5.476562 9.234375 -4.6875 8.484375 -3.6875 C 7.671875 -2.59375 7.160156 -1.550781 6.953125 -0.5625 C 6.742188 0.425781 6.789062 1.320312 7.09375 2.125 C 7.40625 2.925781 7.914062 3.59375 8.625 4.125 C 9.226562 4.570312 9.816406 4.851562 10.390625 4.96875 C 10.960938 5.09375 11.519531 5.125 12.0625 5.0625 C 12.601562 5 13.113281 4.910156 13.59375 4.796875 L 14.03125 6.546875 C 13.425781 6.742188 12.742188 6.894531 11.984375 7 C 11.222656 7.101562 10.414062 7.0625 9.5625 6.875 C 8.707031 6.6875 7.820312 6.253906 6.90625 5.578125 Z M 6.90625 5.578125 "/></g></g></g><g fill="#000000" fill-opacity="1"><g transform="translate(258.82575, 103.586044)"><g><path d="M 0.78125 0.828125 L 1.78125 -0.109375 L 2.671875 0.546875 C 3.015625 0.785156 3.253906 0.894531 3.390625 0.875 C 3.523438 0.851562 3.769531 0.675781 4.125 0.34375 L 11.796875 -6.8125 C 12.140625 -7.132812 12.332031 -7.367188 12.375 -7.515625 C 12.414062 -7.671875 12.320312 -7.914062 12.09375 -8.25 L 11.515625 -9.203125 L 12.515625 -10.140625 L 17.46875 -4.84375 L 16.46875 -3.90625 L 15.484375 -4.609375 C 15.203125 -4.804688 14.984375 -4.890625 14.828125 -4.859375 C 14.679688 -4.828125 14.453125 -4.660156 14.140625 -4.359375 L 11.109375 -1.53125 L 15.328125 3 L 18.359375 0.171875 C 18.671875 -0.128906 18.847656 -0.347656 18.890625 -0.484375 C 18.941406 -0.628906 18.878906 -0.859375 18.703125 -1.171875 L 18.0625 -2.1875 L 19.0625 -3.125 L 24.015625 2.171875 L 23.015625 3.109375 L 22.125 2.484375 C 21.800781 2.234375 21.5625 2.117188 21.40625 2.140625 C 21.257812 2.171875 21.015625 2.347656 20.671875 2.671875 L 13 9.828125 C 12.644531 10.160156 12.453125 10.398438 12.421875 10.546875 C 12.398438 10.691406 12.492188 10.9375 12.703125 11.28125 L 13.28125 12.203125 L 12.28125 13.140625 L 7.328125 7.84375 L 8.328125 6.90625 L 9.3125 7.609375 C 9.59375 7.828125 9.804688 7.914062 9.953125 7.875 C 10.109375 7.832031 10.328125 7.679688 10.609375 7.421875 L 13.984375 4.25 L 9.765625 -0.28125 L 6.390625 2.890625 C 6.109375 3.148438 5.941406 3.351562 5.890625 3.5 C 5.847656 3.65625 5.914062 3.878906 6.09375 4.171875 L 6.734375 5.1875 L 5.734375 6.125 Z M 0.78125 0.828125 "/></g></g></g><g fill="#000000" fill-opacity="1"><g transform="translate(85.51158, 121.831675)"><g><path d="M -2.453125 4.15625 C -2.054688 3.414062 -1.539062 2.859375 -0.90625 2.484375 C -0.28125 2.109375 0.398438 1.925781 1.140625 1.9375 C 1.890625 1.957031 2.660156 2.179688 3.453125 2.609375 C 4.085938 2.953125 4.617188 3.347656 5.046875 3.796875 C 5.472656 4.253906 5.78125 4.75 5.96875 5.28125 C 6.164062 5.820312 6.238281 6.375 6.1875 6.9375 C 6.132812 7.5 5.953125 8.070312 5.640625 8.65625 C 5.242188 9.375 4.738281 9.914062 4.125 10.28125 C 3.507812 10.65625 2.828125 10.832031 2.078125 10.8125 C 1.328125 10.800781 0.570312 10.585938 -0.1875 10.171875 C -1.039062 9.710938 -1.703125 9.148438 -2.171875 8.484375 C -2.640625 7.828125 -2.898438 7.125 -2.953125 6.375 C -3.015625 5.625 -2.847656 4.882812 -2.453125 4.15625 Z M -1.765625 4.6875 C -2.191406 5.457031 -2.226562 6.191406 -1.875 6.890625 C -1.53125 7.597656 -0.816406 8.242188 0.265625 8.828125 C 0.960938 9.210938 1.613281 9.4375 2.21875 9.5 C 2.832031 9.570312 3.375 9.492188 3.84375 9.265625 C 4.320312 9.035156 4.707031 8.648438 5 8.109375 C 5.414062 7.335938 5.453125 6.585938 5.109375 5.859375 C 4.773438 5.128906 4.085938 4.484375 3.046875 3.921875 C 2.347656 3.546875 1.6875 3.320312 1.0625 3.25 C 0.4375 3.175781 -0.117188 3.265625 -0.609375 3.515625 C -1.097656 3.765625 -1.484375 4.15625 -1.765625 4.6875 Z M -1.765625 4.6875 "/></g></g></g><g fill="#000000" fill-opacity="1"><g transform="translate(79.911148, 132.488476)"><g><path d="M -1.734375 3.625 C -1.566406 3.238281 -1.332031 2.882812 -1.03125 2.5625 C -0.726562 2.238281 -0.40625 2.003906 -0.0625 1.859375 L -0.6875 1.375 L -0.453125 0.859375 L 2.171875 1.703125 L 1.953125 2.40625 C 1.203125 2.363281 0.582031 2.46875 0.09375 2.71875 C -0.382812 2.976562 -0.738281 3.375 -0.96875 3.90625 C -1.113281 4.238281 -1.179688 4.539062 -1.171875 4.8125 C -1.160156 5.082031 -1.078125 5.316406 -0.921875 5.515625 C -0.773438 5.722656 -0.566406 5.890625 -0.296875 6.015625 C 0.140625 6.191406 0.539062 6.195312 0.90625 6.03125 C 1.28125 5.875 1.722656 5.503906 2.234375 4.921875 C 2.671875 4.410156 3.070312 4.023438 3.4375 3.765625 C 3.8125 3.503906 4.175781 3.359375 4.53125 3.328125 C 4.894531 3.304688 5.28125 3.382812 5.6875 3.5625 C 6.019531 3.707031 6.296875 3.898438 6.515625 4.140625 C 6.742188 4.378906 6.910156 4.648438 7.015625 4.953125 C 7.117188 5.253906 7.160156 5.582031 7.140625 5.9375 C 7.117188 6.289062 7.03125 6.65625 6.875 7.03125 C 6.726562 7.351562 6.535156 7.644531 6.296875 7.90625 C 6.054688 8.164062 5.796875 8.363281 5.515625 8.5 L 6.0625 8.90625 L 5.828125 9.453125 L 3.359375 8.703125 L 3.546875 8 C 4.242188 8.09375 4.804688 8.035156 5.234375 7.828125 C 5.671875 7.628906 5.992188 7.28125 6.203125 6.78125 C 6.390625 6.363281 6.421875 5.972656 6.296875 5.609375 C 6.179688 5.253906 5.925781 4.992188 5.53125 4.828125 C 5.269531 4.710938 5.019531 4.671875 4.78125 4.703125 C 4.550781 4.734375 4.300781 4.847656 4.03125 5.046875 C 3.769531 5.253906 3.460938 5.550781 3.109375 5.9375 C 2.765625 6.3125 2.441406 6.617188 2.140625 6.859375 C 1.847656 7.109375 1.566406 7.285156 1.296875 7.390625 C 1.023438 7.503906 0.753906 7.550781 0.484375 7.53125 C 0.222656 7.519531 -0.0546875 7.445312 -0.359375 7.3125 C -0.847656 7.101562 -1.234375 6.800781 -1.515625 6.40625 C -1.796875 6.019531 -1.957031 5.585938 -2 5.109375 C -2.039062 4.628906 -1.953125 4.132812 -1.734375 3.625 Z M -1.734375 3.625 "/></g></g></g><g fill="#000000" fill-opacity="1"><g transform="translate(76.037148, 141.696798)"><g><path d="M -0.8125 2.5 L -0.234375 2.6875 L -0.390625 3.71875 C -0.421875 3.875 -0.398438 3.988281 -0.328125 4.0625 C -0.253906 4.144531 -0.113281 4.222656 0.09375 4.296875 L 6.546875 6.390625 L 6.75 5.734375 C 6.851562 5.441406 6.910156 5.1875 6.921875 4.96875 C 6.941406 4.75 6.90625 4.539062 6.8125 4.34375 C 6.726562 4.15625 6.582031 3.960938 6.375 3.765625 C 6.164062 3.578125 5.878906 3.34375 5.515625 3.0625 L 5.890625 2.453125 L 8.15625 3.734375 L 5.890625 10.71875 L 3.3125 10.375 L 3.375 9.671875 C 3.96875 9.671875 4.421875 9.632812 4.734375 9.5625 C 5.054688 9.5 5.300781 9.367188 5.46875 9.171875 C 5.644531 8.972656 5.800781 8.675781 5.9375 8.28125 L 6.15625 7.59375 L -0.359375 5.484375 C -0.554688 5.410156 -0.695312 5.390625 -0.78125 5.421875 C -0.875 5.460938 -0.960938 5.5625 -1.046875 5.71875 L -1.5 6.625 L -2.078125 6.4375 Z M -0.8125 2.5 "/></g></g></g><g fill="#000000" fill-opacity="1"><g transform="translate(72.548303, 152.933353)"><g><path d="M -0.171875 0.765625 L 0.421875 0.90625 L 0.375 1.65625 C 0.363281 1.8125 0.390625 1.921875 0.453125 1.984375 C 0.523438 2.054688 0.679688 2.117188 0.921875 2.171875 L 6.96875 3.53125 C 7.1875 3.570312 7.335938 3.570312 7.421875 3.53125 C 7.515625 3.5 7.585938 3.40625 7.640625 3.25 L 7.921875 2.578125 L 8.515625 2.703125 L 7.234375 8.453125 L 5.09375 8.453125 L 5.046875 7.765625 C 5.515625 7.703125 5.878906 7.613281 6.140625 7.5 C 6.398438 7.394531 6.59375 7.234375 6.71875 7.015625 C 6.851562 6.804688 6.96875 6.5 7.0625 6.09375 L 7.328125 4.890625 L 4.109375 4.171875 L 3.859375 5.25 C 3.796875 5.5625 3.765625 5.785156 3.765625 5.921875 C 3.773438 6.054688 3.84375 6.171875 3.96875 6.265625 C 4.101562 6.367188 4.328125 6.492188 4.640625 6.640625 L 4.59375 7.21875 L 1.765625 6.59375 L 1.78125 6.015625 C 2.125 6.023438 2.375 6.015625 2.53125 5.984375 C 2.6875 5.960938 2.804688 5.882812 2.890625 5.75 C 2.972656 5.613281 3.046875 5.390625 3.109375 5.078125 L 3.359375 4 L -0.015625 3.25 L -0.375 4.875 C -0.46875 5.269531 -0.492188 5.585938 -0.453125 5.828125 C -0.421875 6.066406 -0.304688 6.28125 -0.109375 6.46875 C 0.0859375 6.65625 0.394531 6.863281 0.8125 7.09375 L 0.65625 7.765625 L -1.546875 6.953125 Z M 8.640625 5.171875 L 9.046875 5 L 10.15625 6.984375 C 10.226562 7.109375 10.28125 7.207031 10.3125 7.28125 C 10.351562 7.363281 10.363281 7.445312 10.34375 7.53125 C 10.3125 7.6875 10.21875 7.796875 10.0625 7.859375 C 9.90625 7.929688 9.753906 7.953125 9.609375 7.921875 C 9.429688 7.878906 9.296875 7.800781 9.203125 7.6875 C 9.117188 7.582031 9.066406 7.429688 9.046875 7.234375 Z M 8.640625 5.171875 "/></g></g></g><g fill="#000000" fill-opacity="1"><g transform="translate(70.332463, 163.193624)"><g><path d="M -0.765625 4.765625 C -0.660156 3.929688 -0.382812 3.222656 0.0625 2.640625 C 0.507812 2.054688 1.082031 1.632812 1.78125 1.375 C 2.488281 1.125 3.285156 1.054688 4.171875 1.171875 C 4.890625 1.265625 5.523438 1.441406 6.078125 1.703125 C 6.640625 1.972656 7.109375 2.320312 7.484375 2.75 C 7.859375 3.175781 8.125 3.660156 8.28125 4.203125 C 8.4375 4.753906 8.472656 5.359375 8.390625 6.015625 C 8.285156 6.828125 8.015625 7.515625 7.578125 8.078125 C 7.140625 8.648438 6.570312 9.0625 5.875 9.3125 C 5.175781 9.570312 4.394531 9.644531 3.53125 9.53125 C 2.5625 9.414062 1.734375 9.132812 1.046875 8.6875 C 0.367188 8.25 -0.125 7.691406 -0.4375 7.015625 C -0.757812 6.335938 -0.867188 5.585938 -0.765625 4.765625 Z M 0.046875 5 C -0.0546875 5.875 0.175781 6.578125 0.75 7.109375 C 1.332031 7.640625 2.234375 7.976562 3.453125 8.125 C 4.242188 8.226562 4.929688 8.203125 5.515625 8.046875 C 6.109375 7.898438 6.585938 7.628906 6.953125 7.234375 C 7.316406 6.847656 7.535156 6.351562 7.609375 5.75 C 7.722656 4.875 7.488281 4.15625 6.90625 3.59375 C 6.320312 3.039062 5.441406 2.6875 4.265625 2.53125 C 3.472656 2.4375 2.769531 2.472656 2.15625 2.640625 C 1.550781 2.804688 1.066406 3.085938 0.703125 3.484375 C 0.347656 3.890625 0.128906 4.394531 0.046875 5 Z M 0.046875 5 "/></g></g></g><g fill="#000000" fill-opacity="1"><g transform="translate(68.987495, 175.161558)"><g><path d="M -0.03125 0.78125 L 0.578125 0.796875 L 0.671875 1.546875 C 0.691406 1.710938 0.742188 1.820312 0.828125 1.875 C 0.910156 1.925781 1.070312 1.957031 1.3125 1.96875 L 7.515625 2.171875 C 7.734375 2.171875 7.878906 2.144531 7.953125 2.09375 C 8.023438 2.039062 8.082031 1.929688 8.125 1.765625 L 8.265625 1.046875 L 8.875 1.0625 L 8.78125 4.203125 C 8.757812 4.960938 8.644531 5.59375 8.4375 6.09375 C 8.226562 6.601562 7.929688 6.976562 7.546875 7.21875 C 7.171875 7.457031 6.707031 7.566406 6.15625 7.546875 C 5.726562 7.535156 5.335938 7.445312 4.984375 7.28125 C 4.640625 7.113281 4.34375 6.882812 4.09375 6.59375 C 3.851562 6.3125 3.671875 5.972656 3.546875 5.578125 C 3.421875 5.191406 3.363281 4.765625 3.375 4.296875 C 3.382812 4.066406 3.398438 3.859375 3.421875 3.671875 C 3.441406 3.484375 3.460938 3.351562 3.484375 3.28125 L 1.234375 3.21875 C 1.003906 3.207031 0.847656 3.234375 0.765625 3.296875 C 0.679688 3.367188 0.625 3.492188 0.59375 3.671875 L 0.46875 4.5625 L -0.140625 4.546875 Z M 4.078125 4.0625 C 4.054688 4.738281 4.222656 5.253906 4.578125 5.609375 C 4.929688 5.972656 5.457031 6.164062 6.15625 6.1875 C 6.8125 6.207031 7.289062 6.050781 7.59375 5.71875 C 7.90625 5.382812 8.070312 4.84375 8.09375 4.09375 L 8.109375 3.4375 L 4.171875 3.3125 C 4.148438 3.382812 4.128906 3.488281 4.109375 3.625 C 4.085938 3.757812 4.078125 3.90625 4.078125 4.0625 Z M 4.078125 4.0625 "/></g></g></g><g fill="#000000" fill-opacity="1"><g transform="translate(68.732528, 185.19418)"><g><path d="M 0.015625 0.1875 L 0.625 0.15625 L 0.765625 0.75 C 0.804688 0.90625 0.867188 1.015625 0.953125 1.078125 C 1.035156 1.140625 1.210938 1.21875 1.484375 1.3125 L 9.125 3.53125 L 9.203125 4.875 L 1.875 7.984375 C 1.65625 8.078125 1.503906 8.15625 1.421875 8.21875 C 1.335938 8.28125 1.28125 8.398438 1.25 8.578125 L 1.1875 9.109375 L 0.546875 9.140625 L 0.34375 5.75 L 0.953125 5.71875 L 1.09375 6.4375 C 1.125 6.601562 1.1875 6.703125 1.28125 6.734375 C 1.375 6.773438 1.519531 6.742188 1.71875 6.640625 L 3.296875 6 L 3.109375 2.609375 L 1.53125 2.171875 C 1.300781 2.109375 1.140625 2.097656 1.046875 2.140625 C 0.953125 2.191406 0.890625 2.3125 0.859375 2.5 L 0.78125 3.234375 L 0.1875 3.265625 Z M 3.84375 2.828125 L 4 5.71875 L 8.09375 4.0625 L 8.09375 4 Z M 3.84375 2.828125 "/></g></g></g><g fill="#000000" fill-opacity="1"><g transform="translate(69.543876, 196.924557)"><g><path d="M 0.40625 2.59375 L 1.015625 2.5 L 1.328125 3.484375 C 1.367188 3.640625 1.441406 3.738281 1.546875 3.78125 C 1.648438 3.820312 1.8125 3.828125 2.03125 3.796875 L 8.734375 2.71875 L 8.625 2.03125 C 8.570312 1.726562 8.503906 1.472656 8.421875 1.265625 C 8.347656 1.066406 8.226562 0.90625 8.0625 0.78125 C 7.894531 0.65625 7.671875 0.550781 7.390625 0.46875 C 7.109375 0.382812 6.742188 0.304688 6.296875 0.234375 L 6.359375 -0.46875 L 8.953125 -0.390625 L 10.109375 6.859375 L 7.671875 7.75 L 7.390625 7.078125 C 7.921875 6.816406 8.3125 6.582031 8.5625 6.375 C 8.820312 6.164062 8.984375 5.929688 9.046875 5.671875 C 9.109375 5.421875 9.109375 5.085938 9.046875 4.671875 L 8.9375 3.96875 L 2.171875 5.046875 C 1.960938 5.085938 1.820312 5.140625 1.75 5.203125 C 1.6875 5.273438 1.65625 5.394531 1.65625 5.5625 L 1.671875 6.59375 L 1.0625 6.6875 Z M 0.40625 2.59375 "/></g></g></g><g fill="#000000" fill-opacity="1"><g transform="translate(71.499852, 208.581899)"><g><path d="M 0.203125 0.75 L 0.796875 0.59375 L 1.078125 1.296875 C 1.148438 1.429688 1.234375 1.515625 1.328125 1.546875 C 1.429688 1.578125 1.597656 1.5625 1.828125 1.5 L 7.8125 -0.109375 C 8.03125 -0.160156 8.164062 -0.222656 8.21875 -0.296875 C 8.269531 -0.378906 8.289062 -0.503906 8.28125 -0.671875 L 8.21875 -1.40625 L 8.796875 -1.5625 L 9.703125 1.84375 L 9.125 2 L 8.8125 1.3125 C 8.75 1.175781 8.671875 1.09375 8.578125 1.0625 C 8.484375 1.03125 8.320312 1.046875 8.09375 1.109375 L 5.625 1.765625 L 6.75 5.953125 L 9.265625 5.28125 C 9.484375 5.226562 9.617188 5.164062 9.671875 5.09375 C 9.722656 5.019531 9.742188 4.890625 9.734375 4.703125 L 9.671875 4.015625 L 10.25 3.859375 L 11.15625 7.21875 L 10.578125 7.375 L 10.265625 6.71875 C 10.203125 6.570312 10.125 6.484375 10.03125 6.453125 C 9.945312 6.429688 9.785156 6.453125 9.546875 6.515625 L 3.5625 8.125 C 3.351562 8.175781 3.21875 8.234375 3.15625 8.296875 C 3.09375 8.367188 3.066406 8.5 3.078125 8.6875 L 3.15625 9.375 L 2.5625 9.53125 L 1.65625 6.171875 L 2.25 6.015625 L 2.53125 6.671875 C 2.601562 6.816406 2.6875 6.90625 2.78125 6.9375 C 2.882812 6.96875 3.050781 6.953125 3.28125 6.890625 L 5.984375 6.171875 L 4.859375 1.984375 L 2.109375 2.71875 C 1.898438 2.769531 1.765625 2.832031 1.703125 2.90625 C 1.648438 2.988281 1.625 3.113281 1.625 3.28125 L 1.703125 4 L 1.109375 4.15625 Z M 0.203125 0.75 "/></g></g></g><g fill="#000000" fill-opacity="1"><g transform="translate(75.09292, 221.093772)"><g><path d="M 0.265625 0.734375 L 0.84375 0.53125 L 1.21875 1.234375 C 1.300781 1.367188 1.390625 1.445312 1.484375 1.46875 C 1.578125 1.488281 1.738281 1.457031 1.96875 1.375 L 7.796875 -0.75 C 7.992188 -0.820312 8.117188 -0.894531 8.171875 -0.96875 C 8.234375 -1.039062 8.242188 -1.164062 8.203125 -1.34375 L 8.0625 -2.109375 L 8.640625 -2.3125 L 9.875 1.09375 L 9.296875 1.296875 L 8.90625 0.59375 C 8.84375 0.46875 8.757812 0.394531 8.65625 0.375 C 8.5625 0.363281 8.40625 0.394531 8.1875 0.46875 L 2.359375 2.59375 C 2.148438 2.664062 2.019531 2.738281 1.96875 2.8125 C 1.914062 2.882812 1.898438 3.003906 1.921875 3.171875 L 2.078125 3.9375 L 1.5 4.140625 Z M 0.265625 0.734375 "/></g></g></g><g fill="#000000" fill-opacity="1"><g transform="translate(77.69249, 228.141323)"><g><path d="M 0.328125 0.71875 L 0.890625 0.46875 L 1.28125 1.09375 C 1.382812 1.226562 1.484375 1.300781 1.578125 1.3125 C 1.671875 1.320312 1.828125 1.28125 2.046875 1.1875 L 7.703125 -1.375 C 7.898438 -1.457031 8.019531 -1.539062 8.0625 -1.625 C 8.113281 -1.71875 8.117188 -1.84375 8.078125 -2 L 7.890625 -2.703125 L 8.4375 -2.953125 L 10.859375 2.40625 L 9.15625 3.6875 L 8.6875 3.1875 C 9.03125 2.851562 9.273438 2.5625 9.421875 2.3125 C 9.566406 2.070312 9.625 1.820312 9.59375 1.5625 C 9.570312 1.3125 9.472656 1 9.296875 0.625 L 8.796875 -0.5 L 5.796875 0.859375 L 6.25 1.875 C 6.375 2.15625 6.476562 2.347656 6.5625 2.453125 C 6.65625 2.566406 6.78125 2.625 6.9375 2.625 C 7.101562 2.632812 7.351562 2.601562 7.6875 2.53125 L 8 3.03125 L 5.359375 4.21875 L 5.03125 3.734375 C 5.3125 3.546875 5.503906 3.390625 5.609375 3.265625 C 5.722656 3.148438 5.769531 3.015625 5.75 2.859375 C 5.726562 2.703125 5.65625 2.484375 5.53125 2.203125 L 5.078125 1.1875 L 1.9375 2.609375 L 2.609375 4.125 C 2.773438 4.488281 2.941406 4.753906 3.109375 4.921875 C 3.285156 5.097656 3.515625 5.203125 3.796875 5.234375 C 4.078125 5.265625 4.445312 5.242188 4.90625 5.171875 L 5.203125 5.796875 L 2.9375 6.5 Z M 0.328125 0.71875 "/></g></g></g><g fill="#000000" fill-opacity="1"><g transform="translate(82.100311, 237.509575)"><g/></g></g><g fill="#000000" fill-opacity="1"><g transform="translate(84.346496, 241.677008)"><g><path d="M 2.984375 -1.125 L 3.875 -1.65625 L 5.609375 1.25 L 4.71875 1.78125 Z M 2.984375 -1.125 "/></g></g></g><g fill="#000000" fill-opacity="1"><g transform="translate(87.828824, 247.389319)"><g/></g></g><g fill="#000000" fill-opacity="1"><g transform="translate(90.454257, 251.283544)"><g/></g></g><g fill="#000000" fill-opacity="1"><g transform="translate(93.244285, 255.227197)"><g><path d="M 0.125 0.140625 L 0.59375 -0.25 L 1.0625 0.15625 C 1.1875 0.257812 1.296875 0.3125 1.390625 0.3125 C 1.492188 0.3125 1.6875 0.265625 1.96875 0.171875 L 9.453125 -2.5625 L 10.328125 -1.515625 L 6.21875 5.328125 C 6.101562 5.535156 6.03125 5.6875 6 5.78125 C 5.96875 5.875 5.992188 6.007812 6.078125 6.1875 L 6.34375 6.640625 L 5.84375 7.046875 L 3.6875 4.4375 L 4.15625 4.046875 L 4.703125 4.546875 C 4.816406 4.660156 4.921875 4.703125 5.015625 4.671875 C 5.117188 4.648438 5.21875 4.539062 5.3125 4.34375 L 6.21875 2.890625 L 4.046875 0.265625 L 2.5 0.84375 C 2.28125 0.925781 2.148438 1.015625 2.109375 1.109375 C 2.066406 1.210938 2.085938 1.34375 2.171875 1.5 L 2.53125 2.140625 L 2.078125 2.515625 Z M 4.765625 0.015625 L 6.609375 2.25 L 8.9375 -1.515625 L 8.890625 -1.5625 Z M 4.765625 0.015625 "/></g></g></g><g fill="#000000" fill-opacity="1"><g transform="translate(100.844064, 264.184218)"><g><path d="M 3.34375 3.5625 C 2.738281 2.96875 2.34375 2.304688 2.15625 1.578125 C 1.976562 0.847656 2.007812 0.117188 2.25 -0.609375 C 2.488281 -1.347656 2.9375 -2.050781 3.59375 -2.71875 C 4.238281 -3.375 4.925781 -3.828125 5.65625 -4.078125 C 6.382812 -4.328125 7.097656 -4.378906 7.796875 -4.234375 C 8.503906 -4.085938 9.144531 -3.726562 9.71875 -3.15625 C 10.03125 -2.84375 10.265625 -2.515625 10.421875 -2.171875 C 10.585938 -1.828125 10.675781 -1.476562 10.6875 -1.125 L 11.34375 -1.59375 L 11.78125 -1.15625 L 10.03125 1.296875 L 9.4375 0.921875 C 9.820312 0.160156 9.992188 -0.488281 9.953125 -1.03125 C 9.910156 -1.570312 9.648438 -2.082031 9.171875 -2.5625 C 8.753906 -2.96875 8.300781 -3.210938 7.8125 -3.296875 C 7.320312 -3.378906 6.804688 -3.289062 6.265625 -3.03125 C 5.722656 -2.78125 5.160156 -2.363281 4.578125 -1.78125 C 4.046875 -1.25 3.671875 -0.6875 3.453125 -0.09375 C 3.242188 0.488281 3.1875 1.050781 3.28125 1.59375 C 3.375 2.132812 3.640625 2.617188 4.078125 3.046875 C 4.328125 3.296875 4.59375 3.492188 4.875 3.640625 C 5.15625 3.785156 5.460938 3.875 5.796875 3.90625 C 6.128906 3.9375 6.5 3.914062 6.90625 3.84375 L 7.015625 4.578125 C 6.585938 4.679688 6.148438 4.710938 5.703125 4.671875 C 5.265625 4.628906 4.84375 4.515625 4.4375 4.328125 C 4.03125 4.140625 3.664062 3.882812 3.34375 3.5625 Z M 3.34375 3.5625 "/></g></g></g><g fill="#000000" fill-opacity="1"><g transform="translate(108.936308, 272.084395)"><g><path d="M 3.890625 3.375 C 3.296875 2.894531 2.882812 2.394531 2.65625 1.875 C 2.425781 1.363281 2.378906 0.820312 2.515625 0.25 C 2.648438 -0.3125 2.972656 -0.90625 3.484375 -1.53125 L 6.125 -4.796875 C 6.257812 -4.960938 6.328125 -5.085938 6.328125 -5.171875 C 6.335938 -5.265625 6.285156 -5.382812 6.171875 -5.53125 L 5.703125 -6.0625 L 6.09375 -6.53125 L 8.828125 -4.3125 L 8.4375 -3.84375 L 7.78125 -4.21875 C 7.65625 -4.289062 7.539062 -4.3125 7.4375 -4.28125 C 7.34375 -4.25 7.222656 -4.144531 7.078125 -3.96875 L 4.515625 -0.796875 C 4.117188 -0.296875 3.847656 0.160156 3.703125 0.578125 C 3.566406 0.992188 3.570312 1.378906 3.71875 1.734375 C 3.875 2.085938 4.160156 2.4375 4.578125 2.78125 C 5.003906 3.125 5.414062 3.328125 5.8125 3.390625 C 6.21875 3.460938 6.617188 3.390625 7.015625 3.171875 C 7.421875 2.960938 7.828125 2.609375 8.234375 2.109375 L 10.765625 -1.03125 C 10.898438 -1.195312 10.96875 -1.328125 10.96875 -1.421875 C 10.976562 -1.515625 10.925781 -1.628906 10.8125 -1.765625 L 10.34375 -2.3125 L 10.734375 -2.78125 L 13.171875 -0.796875 L 12.78125 -0.328125 L 12.140625 -0.703125 C 12.003906 -0.773438 11.890625 -0.796875 11.796875 -0.765625 C 11.703125 -0.734375 11.578125 -0.625 11.421875 -0.4375 L 9.015625 2.546875 C 8.203125 3.546875 7.367188 4.113281 6.515625 4.25 C 5.660156 4.394531 4.785156 4.101562 3.890625 3.375 Z M 3.890625 3.375 "/></g></g></g><g fill="#000000" fill-opacity="1"><g transform="translate(118.912585, 279.931626)"><g><path d="M 0.65625 0.4375 L 1 -0.078125 L 1.671875 0.25 C 1.816406 0.300781 1.9375 0.304688 2.03125 0.265625 C 2.125 0.234375 2.238281 0.117188 2.375 -0.078125 L 5.796875 -5.25 C 5.910156 -5.4375 5.960938 -5.578125 5.953125 -5.671875 C 5.941406 -5.765625 5.878906 -5.867188 5.765625 -5.984375 L 5.234375 -6.484375 L 5.578125 -6.984375 L 8.1875 -5.25 C 8.820312 -4.832031 9.300781 -4.40625 9.625 -3.96875 C 9.945312 -3.53125 10.109375 -3.085938 10.109375 -2.640625 C 10.109375 -2.191406 9.957031 -1.738281 9.65625 -1.28125 C 9.414062 -0.925781 9.132812 -0.640625 8.8125 -0.421875 C 8.488281 -0.210938 8.140625 -0.078125 7.765625 -0.015625 C 7.398438 0.0351562 7.015625 0.015625 6.609375 -0.078125 C 6.210938 -0.179688 5.816406 -0.363281 5.421875 -0.625 C 5.234375 -0.75 5.066406 -0.867188 4.921875 -0.984375 C 4.773438 -1.097656 4.675781 -1.1875 4.625 -1.25 L 3.375 0.625 C 3.25 0.820312 3.191406 0.972656 3.203125 1.078125 C 3.210938 1.179688 3.289062 1.296875 3.4375 1.421875 L 4.140625 2 L 3.796875 2.515625 Z M 5.578125 -1.328125 C 6.140625 -0.960938 6.664062 -0.835938 7.15625 -0.953125 C 7.65625 -1.066406 8.097656 -1.414062 8.484375 -2 C 8.847656 -2.539062 8.96875 -3.03125 8.84375 -3.46875 C 8.71875 -3.90625 8.34375 -4.332031 7.71875 -4.75 L 7.171875 -5.109375 L 5 -1.8125 C 5.050781 -1.757812 5.128906 -1.6875 5.234375 -1.59375 C 5.335938 -1.507812 5.453125 -1.421875 5.578125 -1.328125 Z M 5.578125 -1.328125 "/></g></g></g><g fill="#000000" fill-opacity="1"><g transform="translate(127.325181, 285.437569)"><g><path d="M 4.453125 2.578125 C 3.785156 2.210938 3.289062 1.796875 2.96875 1.328125 C 2.644531 0.867188 2.492188 0.351562 2.515625 -0.21875 C 2.546875 -0.800781 2.753906 -1.445312 3.140625 -2.15625 L 5.109375 -5.859375 C 5.210938 -6.054688 5.253906 -6.195312 5.234375 -6.28125 C 5.222656 -6.375 5.148438 -6.476562 5.015625 -6.59375 L 4.453125 -7.03125 L 4.734375 -7.5625 L 7.84375 -5.90625 L 7.5625 -5.375 L 6.84375 -5.625 C 6.695312 -5.675781 6.578125 -5.671875 6.484375 -5.609375 C 6.398438 -5.554688 6.304688 -5.425781 6.203125 -5.21875 L 4.28125 -1.625 C 3.976562 -1.0625 3.800781 -0.5625 3.75 -0.125 C 3.695312 0.3125 3.773438 0.6875 3.984375 1 C 4.203125 1.3125 4.550781 1.597656 5.03125 1.859375 C 5.519531 2.117188 5.96875 2.242188 6.375 2.234375 C 6.78125 2.222656 7.15625 2.070312 7.5 1.78125 C 7.851562 1.488281 8.179688 1.0625 8.484375 0.5 L 10.375 -3.0625 C 10.476562 -3.257812 10.519531 -3.398438 10.5 -3.484375 C 10.488281 -3.578125 10.414062 -3.679688 10.28125 -3.796875 L 9.71875 -4.234375 L 10 -4.765625 L 12.78125 -3.28125 L 12.5 -2.75 L 11.78125 -2.984375 C 11.632812 -3.035156 11.515625 -3.035156 11.421875 -2.984375 C 11.335938 -2.941406 11.242188 -2.8125 11.140625 -2.59375 L 9.328125 0.78125 C 8.722656 1.914062 8.015625 2.632812 7.203125 2.9375 C 6.390625 3.238281 5.472656 3.117188 4.453125 2.578125 Z M 4.453125 2.578125 "/></g></g></g><g fill="#000000" fill-opacity="1"><g transform="translate(138.640519, 291.321372)"><g><path d="M 0.71875 0.296875 L 0.9375 -0.265625 L 1.6875 -0.109375 C 1.832031 -0.0664062 1.945312 -0.078125 2.03125 -0.140625 C 2.113281 -0.210938 2.195312 -0.359375 2.28125 -0.578125 L 4.578125 -6.328125 C 4.660156 -6.535156 4.691406 -6.679688 4.671875 -6.765625 C 4.648438 -6.847656 4.566406 -6.9375 4.421875 -7.03125 L 3.796875 -7.40625 L 4.03125 -7.96875 L 6.65625 -6.921875 L 7.875 1.390625 L 7.921875 1.28125 L 10.078125 -4.125 C 10.160156 -4.332031 10.191406 -4.476562 10.171875 -4.5625 C 10.148438 -4.65625 10.066406 -4.742188 9.921875 -4.828125 L 9.3125 -5.203125 L 9.546875 -5.765625 L 12.4375 -4.609375 L 12.203125 -4.046875 L 11.484375 -4.203125 C 11.328125 -4.242188 11.210938 -4.234375 11.140625 -4.171875 C 11.066406 -4.117188 10.984375 -3.976562 10.890625 -3.75 L 8.09375 3.234375 L 6.875 2.75 L 5.46875 -6.140625 L 5.4375 -6.046875 L 3.09375 -0.1875 C 3.007812 0.0195312 2.976562 0.164062 3 0.25 C 3.03125 0.34375 3.109375 0.429688 3.234375 0.515625 L 3.859375 0.890625 L 3.640625 1.453125 Z M 0.71875 0.296875 "/></g></g></g><g fill="#000000" fill-opacity="1"><g transform="translate(150.808723, 296.012372)"><g><path d="M 4.65625 1.515625 C 3.832031 1.273438 3.164062 0.878906 2.65625 0.328125 C 2.144531 -0.210938 1.816406 -0.863281 1.671875 -1.625 C 1.523438 -2.382812 1.582031 -3.21875 1.84375 -4.125 C 2.09375 -5.007812 2.472656 -5.734375 2.984375 -6.296875 C 3.503906 -6.867188 4.109375 -7.257812 4.796875 -7.46875 C 5.484375 -7.675781 6.21875 -7.671875 7 -7.453125 C 7.425781 -7.328125 7.789062 -7.148438 8.09375 -6.921875 C 8.394531 -6.703125 8.632812 -6.4375 8.8125 -6.125 L 9.15625 -6.859375 L 9.75 -6.6875 L 9.40625 -3.703125 L 8.703125 -3.734375 C 8.679688 -4.585938 8.519531 -5.242188 8.21875 -5.703125 C 7.925781 -6.160156 7.453125 -6.484375 6.796875 -6.671875 C 6.242188 -6.835938 5.734375 -6.835938 5.265625 -6.671875 C 4.804688 -6.503906 4.394531 -6.175781 4.03125 -5.6875 C 3.675781 -5.195312 3.382812 -4.554688 3.15625 -3.765625 C 2.945312 -3.046875 2.882812 -2.375 2.96875 -1.75 C 3.0625 -1.132812 3.28125 -0.609375 3.625 -0.171875 C 3.976562 0.253906 4.445312 0.550781 5.03125 0.71875 C 5.375 0.8125 5.703125 0.851562 6.015625 0.84375 C 6.335938 0.832031 6.65625 0.757812 6.96875 0.625 C 7.28125 0.5 7.585938 0.304688 7.890625 0.046875 L 8.359375 0.625 C 8.035156 0.925781 7.664062 1.164062 7.25 1.34375 C 6.84375 1.519531 6.414062 1.625 5.96875 1.65625 C 5.53125 1.6875 5.09375 1.640625 4.65625 1.515625 Z M 4.65625 1.515625 "/></g></g></g><g fill="#000000" fill-opacity="1"><g transform="translate(161.693167, 299.015586)"><g><path d="M 2.578125 0.46875 L 2.6875 -0.125 L 3.734375 -0.09375 C 3.890625 -0.0820312 4.003906 -0.117188 4.078125 -0.203125 C 4.148438 -0.285156 4.207031 -0.4375 4.25 -0.65625 L 5.484375 -7.328125 L 4.796875 -7.453125 C 4.492188 -7.503906 4.234375 -7.523438 4.015625 -7.515625 C 3.796875 -7.515625 3.597656 -7.457031 3.421875 -7.34375 C 3.242188 -7.226562 3.066406 -7.050781 2.890625 -6.8125 C 2.722656 -6.570312 2.53125 -6.253906 2.3125 -5.859375 L 1.65625 -6.15625 L 2.625 -8.578125 L 9.84375 -7.25 L 9.859375 -4.65625 L 9.125 -4.609375 C 9.0625 -5.210938 8.972656 -5.664062 8.859375 -5.96875 C 8.742188 -6.28125 8.578125 -6.503906 8.359375 -6.640625 C 8.148438 -6.785156 7.84375 -6.894531 7.4375 -6.96875 L 6.71875 -7.09375 L 5.484375 -0.359375 C 5.441406 -0.148438 5.441406 -0.00390625 5.484375 0.078125 C 5.523438 0.160156 5.632812 0.234375 5.8125 0.296875 L 6.765625 0.625 L 6.65625 1.21875 Z M 2.578125 0.46875 "/></g></g></g><g fill="#000000" fill-opacity="1"><g transform="translate(173.332077, 301.04756)"><g><path d="M 5.109375 0.578125 C 4.347656 0.515625 3.726562 0.335938 3.25 0.046875 C 2.78125 -0.242188 2.441406 -0.660156 2.234375 -1.203125 C 2.023438 -1.753906 1.953125 -2.425781 2.015625 -3.21875 L 2.34375 -7.421875 C 2.363281 -7.628906 2.347656 -7.769531 2.296875 -7.84375 C 2.253906 -7.925781 2.144531 -7.988281 1.96875 -8.03125 L 1.28125 -8.21875 L 1.328125 -8.828125 L 4.828125 -8.546875 L 4.78125 -7.9375 L 4.015625 -7.875 C 3.867188 -7.863281 3.765625 -7.816406 3.703125 -7.734375 C 3.640625 -7.648438 3.601562 -7.5 3.59375 -7.28125 L 3.265625 -3.203125 C 3.222656 -2.578125 3.257812 -2.050781 3.375 -1.625 C 3.5 -1.207031 3.722656 -0.890625 4.046875 -0.671875 C 4.378906 -0.460938 4.816406 -0.335938 5.359375 -0.296875 C 5.910156 -0.253906 6.367188 -0.320312 6.734375 -0.5 C 7.109375 -0.675781 7.394531 -0.960938 7.59375 -1.359375 C 7.789062 -1.753906 7.914062 -2.273438 7.96875 -2.921875 L 8.28125 -6.953125 C 8.300781 -7.160156 8.289062 -7.300781 8.25 -7.375 C 8.207031 -7.457031 8.097656 -7.519531 7.921875 -7.5625 L 7.234375 -7.75 L 7.28125 -8.359375 L 10.40625 -8.109375 L 10.359375 -7.5 L 9.609375 -7.4375 C 9.453125 -7.425781 9.34375 -7.378906 9.28125 -7.296875 C 9.226562 -7.222656 9.191406 -7.070312 9.171875 -6.84375 L 8.875 -3.015625 C 8.769531 -1.734375 8.40625 -0.789062 7.78125 -0.1875 C 7.15625 0.40625 6.265625 0.660156 5.109375 0.578125 Z M 5.109375 0.578125 "/></g></g></g><g fill="#000000" fill-opacity="1"><g transform="translate(186.028178, 301.893196)"><g><path d="M 7.59375 -0.015625 C 7.289062 -0.00390625 7.03125 -0.0390625 6.8125 -0.125 C 6.59375 -0.21875 6.394531 -0.378906 6.21875 -0.609375 C 6.050781 -0.847656 5.875 -1.175781 5.6875 -1.59375 L 5.046875 -3.03125 C 4.898438 -3.363281 4.765625 -3.609375 4.640625 -3.765625 C 4.523438 -3.929688 4.394531 -4.039062 4.25 -4.09375 C 4.101562 -4.144531 3.90625 -4.171875 3.65625 -4.171875 C 3.445312 -4.160156 3.253906 -4.144531 3.078125 -4.125 L 3.140625 -1.421875 C 3.140625 -1.191406 3.175781 -1.035156 3.25 -0.953125 C 3.320312 -0.867188 3.453125 -0.820312 3.640625 -0.8125 L 4.53125 -0.71875 L 4.546875 -0.109375 L 0.78125 -0.015625 L 0.765625 -0.625 L 1.515625 -0.75 C 1.671875 -0.789062 1.769531 -0.851562 1.8125 -0.9375 C 1.863281 -1.019531 1.890625 -1.179688 1.890625 -1.421875 L 1.734375 -7.625 C 1.734375 -7.84375 1.703125 -7.988281 1.640625 -8.0625 C 1.585938 -8.132812 1.472656 -8.179688 1.296875 -8.203125 L 0.578125 -8.3125 L 0.5625 -8.921875 L 3.765625 -9 C 4.503906 -9.019531 5.128906 -8.945312 5.640625 -8.78125 C 6.160156 -8.613281 6.554688 -8.363281 6.828125 -8.03125 C 7.097656 -7.707031 7.238281 -7.296875 7.25 -6.796875 C 7.25 -6.523438 7.195312 -6.257812 7.09375 -6 C 7 -5.75 6.851562 -5.515625 6.65625 -5.296875 C 6.457031 -5.085938 6.222656 -4.90625 5.953125 -4.75 C 5.679688 -4.601562 5.390625 -4.492188 5.078125 -4.421875 L 5.078125 -4.390625 C 5.410156 -4.316406 5.675781 -4.191406 5.875 -4.015625 C 6.082031 -3.835938 6.253906 -3.585938 6.390625 -3.265625 L 6.875 -2.234375 C 7.007812 -1.941406 7.128906 -1.691406 7.234375 -1.484375 C 7.335938 -1.273438 7.457031 -1.117188 7.59375 -1.015625 C 7.738281 -0.910156 7.925781 -0.863281 8.15625 -0.875 C 8.238281 -0.875 8.320312 -0.878906 8.40625 -0.890625 C 8.488281 -0.910156 8.597656 -0.941406 8.734375 -0.984375 L 8.859375 -0.546875 C 8.691406 -0.367188 8.5 -0.234375 8.28125 -0.140625 C 8.070312 -0.0546875 7.84375 -0.015625 7.59375 -0.015625 Z M 3.78125 -4.78125 C 4.238281 -4.789062 4.625 -4.867188 4.9375 -5.015625 C 5.25 -5.171875 5.488281 -5.390625 5.65625 -5.671875 C 5.820312 -5.960938 5.898438 -6.300781 5.890625 -6.6875 C 5.878906 -7.269531 5.695312 -7.691406 5.34375 -7.953125 C 4.988281 -8.210938 4.4375 -8.332031 3.6875 -8.3125 L 2.96875 -8.296875 L 3.0625 -4.796875 C 3.226562 -4.785156 3.367188 -4.78125 3.484375 -4.78125 C 3.597656 -4.78125 3.695312 -4.78125 3.78125 -4.78125 Z M 3.78125 -4.78125 "/></g></g></g><g fill="#000000" fill-opacity="1"><g transform="translate(197.621937, 301.479142)"><g><path d="M 0.78125 -0.09375 L 0.703125 -0.703125 L 1.4375 -0.890625 C 1.582031 -0.941406 1.675781 -1.007812 1.71875 -1.09375 C 1.757812 -1.1875 1.769531 -1.347656 1.75 -1.578125 L 1.03125 -7.75 C 1 -7.96875 0.945312 -8.109375 0.875 -8.171875 C 0.8125 -8.242188 0.695312 -8.28125 0.53125 -8.28125 L -0.1875 -8.328125 L -0.25 -8.9375 L 5.59375 -9.625 L 6.296875 -7.609375 L 5.671875 -7.3125 C 5.453125 -7.738281 5.25 -8.054688 5.0625 -8.265625 C 4.875 -8.484375 4.65625 -8.613281 4.40625 -8.65625 C 4.164062 -8.707031 3.835938 -8.710938 3.421875 -8.671875 L 2.203125 -8.53125 L 2.578125 -5.265625 L 3.671875 -5.390625 C 3.984375 -5.421875 4.207031 -5.460938 4.34375 -5.515625 C 4.476562 -5.566406 4.566406 -5.671875 4.609375 -5.828125 C 4.660156 -5.984375 4.707031 -6.226562 4.75 -6.5625 L 5.296875 -6.703125 L 5.625 -3.84375 L 5.078125 -3.671875 C 4.992188 -3.984375 4.910156 -4.210938 4.828125 -4.359375 C 4.742188 -4.503906 4.625 -4.585938 4.46875 -4.609375 C 4.3125 -4.640625 4.078125 -4.640625 3.765625 -4.609375 L 2.671875 -4.484375 L 3.078125 -1.0625 L 4.71875 -1.25 C 5.125 -1.300781 5.429688 -1.378906 5.640625 -1.484375 C 5.859375 -1.597656 6.023438 -1.78125 6.140625 -2.03125 C 6.253906 -2.28125 6.347656 -2.640625 6.421875 -3.109375 L 7.109375 -3.1875 L 7.078125 -0.828125 Z M 0.78125 -0.09375 "/></g></g></g><g fill="#000000" fill-opacity="1"><g transform="translate(207.884025, 300.114395)"><g/></g></g><g fill="#000000" fill-opacity="1"><g transform="translate(212.5363, 299.23637)"><g><path d="M -0.171875 -3.1875 L -0.40625 -4.203125 L 2.890625 -4.96875 L 3.125 -3.953125 Z M -0.171875 -3.1875 "/></g></g></g><g fill="#000000" fill-opacity="1"><g transform="translate(219.034813, 297.647568)"><g/></g></g><g fill="#000000" fill-opacity="1"><g transform="translate(223.698917, 296.370216)"><g><path d="M 7.609375 -2.578125 C 7.179688 -2.421875 6.789062 -2.378906 6.4375 -2.453125 C 6.09375 -2.523438 5.703125 -2.722656 5.265625 -3.046875 L 2.3125 -5.390625 L 1.859375 -4.390625 L 2.59375 -2.34375 C 2.664062 -2.132812 2.738281 -2.003906 2.8125 -1.953125 C 2.882812 -1.910156 3.003906 -1.894531 3.171875 -1.90625 L 3.9375 -2.078125 L 4.140625 -1.5 L 0.734375 -0.265625 L 0.53125 -0.84375 L 1.234375 -1.203125 C 1.367188 -1.285156 1.445312 -1.375 1.46875 -1.46875 C 1.5 -1.570312 1.472656 -1.738281 1.390625 -1.96875 L -0.71875 -7.796875 C -0.789062 -8.003906 -0.863281 -8.128906 -0.9375 -8.171875 C -1.019531 -8.222656 -1.148438 -8.238281 -1.328125 -8.21875 L -2.078125 -8.0625 L -2.296875 -8.640625 L 1.109375 -9.875 L 1.328125 -9.296875 L 0.609375 -8.90625 C 0.484375 -8.851562 0.410156 -8.773438 0.390625 -8.671875 C 0.367188 -8.566406 0.398438 -8.398438 0.484375 -8.171875 L 1.53125 -5.28125 L 3.390625 -9.25 C 3.460938 -9.425781 3.460938 -9.566406 3.390625 -9.671875 C 3.328125 -9.773438 3.203125 -9.8125 3.015625 -9.78125 L 2.40625 -9.671875 L 2.296875 -10.296875 L 5.140625 -11.328125 L 5.359375 -10.734375 L 4.9375 -10.46875 C 4.820312 -10.382812 4.722656 -10.285156 4.640625 -10.171875 C 4.554688 -10.066406 4.453125 -9.882812 4.328125 -9.625 L 2.84375 -6.453125 L 6.078125 -4.03125 C 6.347656 -3.832031 6.578125 -3.6875 6.765625 -3.59375 C 6.960938 -3.507812 7.144531 -3.460938 7.3125 -3.453125 C 7.488281 -3.453125 7.6875 -3.488281 7.90625 -3.5625 C 7.976562 -3.59375 8.050781 -3.628906 8.125 -3.671875 C 8.195312 -3.710938 8.289062 -3.773438 8.40625 -3.859375 L 8.671875 -3.484375 C 8.585938 -3.285156 8.453125 -3.101562 8.265625 -2.9375 C 8.078125 -2.78125 7.859375 -2.660156 7.609375 -2.578125 Z M 7.609375 -2.578125 "/></g></g></g><g fill="#000000" fill-opacity="1"><g transform="translate(234.844333, 292.148244)"><g><path d="M 0.703125 -0.328125 L 0.453125 -0.875 L 1.140625 -1.3125 C 1.273438 -1.40625 1.347656 -1.5 1.359375 -1.59375 C 1.367188 -1.6875 1.320312 -1.84375 1.21875 -2.0625 L -1.34375 -7.703125 C -1.4375 -7.898438 -1.519531 -8.019531 -1.59375 -8.0625 C -1.675781 -8.113281 -1.804688 -8.117188 -1.984375 -8.078125 L -2.75 -7.875 L -3 -8.4375 L 0.3125 -9.9375 L 0.5625 -9.375 L -0.109375 -8.9375 C -0.234375 -8.851562 -0.300781 -8.757812 -0.3125 -8.65625 C -0.320312 -8.550781 -0.28125 -8.394531 -0.1875 -8.1875 L 2.390625 -2.546875 C 2.472656 -2.347656 2.550781 -2.222656 2.625 -2.171875 C 2.707031 -2.128906 2.835938 -2.128906 3.015625 -2.171875 L 3.765625 -2.375 L 4.015625 -1.828125 Z M 0.703125 -0.328125 "/></g></g></g><g fill="#000000" fill-opacity="1"><g transform="translate(241.730442, 289.02112)"><g><path d="M 0.6875 -0.390625 L 0.390625 -0.921875 L 0.96875 -1.375 C 1.082031 -1.476562 1.140625 -1.578125 1.140625 -1.671875 C 1.148438 -1.773438 1.097656 -1.929688 0.984375 -2.140625 L -2.078125 -7.53125 C -2.179688 -7.71875 -2.273438 -7.832031 -2.359375 -7.875 C -2.441406 -7.914062 -2.554688 -7.90625 -2.703125 -7.84375 L -3.390625 -7.609375 L -3.703125 -8.140625 L -1.25 -9.53125 L 6 -5.28125 L 5.953125 -5.375 L 3.078125 -10.453125 C 2.972656 -10.640625 2.878906 -10.753906 2.796875 -10.796875 C 2.710938 -10.835938 2.59375 -10.828125 2.4375 -10.765625 L 1.765625 -10.53125 L 1.453125 -11.0625 L 4.171875 -12.59375 L 4.484375 -12.0625 L 3.921875 -11.59375 C 3.785156 -11.5 3.710938 -11.40625 3.703125 -11.3125 C 3.703125 -11.21875 3.765625 -11.066406 3.890625 -10.859375 L 7.59375 -4.296875 L 6.453125 -3.640625 L -1.375 -8.125 L -1.328125 -8.03125 L 1.78125 -2.53125 C 1.894531 -2.34375 1.988281 -2.234375 2.0625 -2.203125 C 2.144531 -2.171875 2.265625 -2.171875 2.421875 -2.203125 L 3.109375 -2.46875 L 3.40625 -1.9375 Z M 0.6875 -0.390625 "/></g></g></g><g fill="#000000" fill-opacity="1"><g transform="translate(252.977677, 282.452372)"><g><path d="M 0.640625 -0.453125 L 0.296875 -0.953125 L 0.84375 -1.46875 C 0.945312 -1.582031 1 -1.6875 1 -1.78125 C 1 -1.882812 0.925781 -2.035156 0.78125 -2.234375 L -2.78125 -7.3125 C -2.90625 -7.488281 -3.015625 -7.585938 -3.109375 -7.609375 C -3.203125 -7.640625 -3.328125 -7.617188 -3.484375 -7.546875 L -4.140625 -7.234375 L -4.484375 -7.734375 L 0.328125 -11.125 L 1.90625 -9.6875 L 1.484375 -9.140625 C 1.097656 -9.410156 0.769531 -9.59375 0.5 -9.6875 C 0.238281 -9.78125 -0.0078125 -9.789062 -0.25 -9.71875 C -0.5 -9.644531 -0.789062 -9.488281 -1.125 -9.25 L -2.140625 -8.546875 L -0.234375 -5.859375 L 0.671875 -6.5 C 0.929688 -6.675781 1.101562 -6.816406 1.1875 -6.921875 C 1.28125 -7.023438 1.3125 -7.15625 1.28125 -7.3125 C 1.25 -7.46875 1.164062 -7.703125 1.03125 -8.015625 L 1.453125 -8.421875 L 3.125 -6.0625 L 2.71875 -5.625 C 2.476562 -5.882812 2.289062 -6.054688 2.15625 -6.140625 C 2.019531 -6.222656 1.875 -6.238281 1.71875 -6.1875 C 1.570312 -6.144531 1.367188 -6.035156 1.109375 -5.859375 L 0.203125 -5.21875 L 2.203125 -2.390625 L 3.5625 -3.34375 C 3.894531 -3.570312 4.128906 -3.785156 4.265625 -3.984375 C 4.398438 -4.191406 4.457031 -4.429688 4.4375 -4.703125 C 4.414062 -4.984375 4.320312 -5.347656 4.15625 -5.796875 L 4.71875 -6.1875 L 5.828125 -4.109375 Z M -2.90625 -9.640625 L -3.328125 -9.796875 L -2.828125 -12 C -2.796875 -12.132812 -2.765625 -12.242188 -2.734375 -12.328125 C -2.703125 -12.410156 -2.648438 -12.476562 -2.578125 -12.53125 C -2.453125 -12.613281 -2.304688 -12.628906 -2.140625 -12.578125 C -1.984375 -12.535156 -1.863281 -12.453125 -1.78125 -12.328125 C -1.6875 -12.179688 -1.644531 -12.03125 -1.65625 -11.875 C -1.664062 -11.726562 -1.71875 -11.585938 -1.8125 -11.453125 Z M -2.90625 -9.640625 "/></g></g></g><g fill="#000000" fill-opacity="1"><g transform="translate(261.348872, 276.361139)"><g/></g></g><g fill="#000000" fill-opacity="1"><g transform="translate(265.020454, 273.372288)"><g><path d="M -1.65625 -2.71875 L -2.359375 -3.515625 L 0.171875 -5.765625 L 0.875 -4.96875 Z M -1.65625 -2.71875 "/></g></g></g><g fill="#000000" fill-opacity="1"><g transform="translate(269.976293, 268.878329)"><g/></g></g><g fill="#000000" fill-opacity="1"><g transform="translate(273.456831, 265.531641)"><g><path d="M 5.1875 -5.546875 C 4.976562 -5.328125 4.765625 -5.164062 4.546875 -5.0625 C 4.335938 -4.96875 4.085938 -4.9375 3.796875 -4.96875 C 3.503906 -5 3.148438 -5.085938 2.734375 -5.234375 L 1.234375 -5.75 C 0.890625 -5.863281 0.617188 -5.9375 0.421875 -5.96875 C 0.234375 -6 0.0664062 -5.976562 -0.078125 -5.90625 C -0.222656 -5.832031 -0.378906 -5.703125 -0.546875 -5.515625 C -0.679688 -5.359375 -0.800781 -5.207031 -0.90625 -5.0625 L 1.109375 -3.25 C 1.273438 -3.101562 1.410156 -3.023438 1.515625 -3.015625 C 1.628906 -3.015625 1.757812 -3.082031 1.90625 -3.21875 L 2.578125 -3.796875 L 3.03125 -3.390625 L 0.515625 -0.578125 L 0.0625 -0.984375 L 0.484375 -1.625 C 0.554688 -1.757812 0.582031 -1.875 0.5625 -1.96875 C 0.539062 -2.0625 0.4375 -2.191406 0.25 -2.359375 L -4.375 -6.484375 C -4.53125 -6.628906 -4.65625 -6.703125 -4.75 -6.703125 C -4.84375 -6.710938 -4.957031 -6.664062 -5.09375 -6.5625 L -5.671875 -6.109375 L -6.125 -6.515625 L -3.984375 -8.90625 C -3.492188 -9.457031 -3.015625 -9.863281 -2.546875 -10.125 C -2.078125 -10.382812 -1.628906 -10.5 -1.203125 -10.46875 C -0.773438 -10.445312 -0.375 -10.269531 0 -9.9375 C 0.195312 -9.757812 0.351562 -9.539062 0.46875 -9.28125 C 0.59375 -9.03125 0.664062 -8.757812 0.6875 -8.46875 C 0.707031 -8.1875 0.675781 -7.894531 0.59375 -7.59375 C 0.519531 -7.289062 0.40625 -7.003906 0.25 -6.734375 L 0.265625 -6.71875 C 0.546875 -6.90625 0.816406 -7.007812 1.078125 -7.03125 C 1.347656 -7.050781 1.65625 -7.007812 2 -6.90625 L 3.078125 -6.53125 C 3.367188 -6.425781 3.625 -6.34375 3.84375 -6.28125 C 4.070312 -6.226562 4.273438 -6.21875 4.453125 -6.25 C 4.628906 -6.28125 4.789062 -6.378906 4.9375 -6.546875 C 5 -6.609375 5.050781 -6.675781 5.09375 -6.75 C 5.132812 -6.820312 5.1875 -6.921875 5.25 -7.046875 L 5.65625 -6.84375 C 5.664062 -6.59375 5.628906 -6.359375 5.546875 -6.140625 C 5.472656 -5.929688 5.351562 -5.734375 5.1875 -5.546875 Z M -0.90625 -6.03125 C -0.601562 -6.375 -0.398438 -6.710938 -0.296875 -7.046875 C -0.191406 -7.378906 -0.1875 -7.703125 -0.28125 -8.015625 C -0.375 -8.328125 -0.5625 -8.613281 -0.84375 -8.875 C -1.28125 -9.257812 -1.710938 -9.410156 -2.140625 -9.328125 C -2.566406 -9.242188 -3.03125 -8.925781 -3.53125 -8.375 L -4.015625 -7.828125 L -1.40625 -5.5 C -1.28125 -5.625 -1.175781 -5.726562 -1.09375 -5.8125 C -1.019531 -5.894531 -0.957031 -5.96875 -0.90625 -6.03125 Z M -0.90625 -6.03125 "/></g></g></g><g fill="#000000" fill-opacity="1"><g transform="translate(281.0836, 256.790862)"><g><path d="M 0.46875 -0.625 L -0.015625 -0.984375 L 0.328125 -1.65625 C 0.398438 -1.800781 0.414062 -1.921875 0.375 -2.015625 C 0.34375 -2.109375 0.226562 -2.222656 0.03125 -2.359375 L -4.953125 -6.046875 C -5.128906 -6.179688 -5.265625 -6.25 -5.359375 -6.25 C -5.453125 -6.25 -5.5625 -6.1875 -5.6875 -6.0625 L -6.203125 -5.5625 L -6.6875 -5.921875 L -3.1875 -10.65625 L -1.234375 -9.8125 L -1.453125 -9.140625 C -1.921875 -9.273438 -2.289062 -9.34375 -2.5625 -9.34375 C -2.84375 -9.351562 -3.085938 -9.285156 -3.296875 -9.140625 C -3.515625 -9.003906 -3.742188 -8.769531 -3.984375 -8.4375 L -4.71875 -7.4375 L -2.0625 -5.46875 L -1.40625 -6.359375 C -1.21875 -6.617188 -1.097656 -6.8125 -1.046875 -6.9375 C -1.003906 -7.0625 -1.019531 -7.195312 -1.09375 -7.34375 C -1.175781 -7.488281 -1.328125 -7.691406 -1.546875 -7.953125 L -1.265625 -8.453125 L 1.0625 -6.734375 L 0.796875 -6.21875 C 0.492188 -6.363281 0.265625 -6.457031 0.109375 -6.5 C -0.046875 -6.539062 -0.1875 -6.515625 -0.3125 -6.421875 C -0.4375 -6.328125 -0.59375 -6.148438 -0.78125 -5.890625 L -1.4375 -5 L 1.34375 -2.953125 L 2.328125 -4.296875 C 2.566406 -4.617188 2.71875 -4.894531 2.78125 -5.125 C 2.851562 -5.363281 2.832031 -5.609375 2.71875 -5.859375 C 2.613281 -6.117188 2.410156 -6.4375 2.109375 -6.8125 L 2.515625 -7.359375 L 4.234375 -5.734375 Z M 0.46875 -0.625 "/></g></g></g><g fill="#000000" fill-opacity="1"><g transform="translate(287.353469, 248.293905)"><g><path d="M 0.40625 -0.6875 L -0.125 -1 L 0.140625 -1.6875 C 0.210938 -1.851562 0.207031 -1.976562 0.125 -2.0625 C 0.0507812 -2.144531 -0.0625 -2.238281 -0.21875 -2.34375 L -5.390625 -5.796875 C -5.578125 -5.910156 -5.710938 -5.960938 -5.796875 -5.953125 C -5.878906 -5.953125 -5.984375 -5.890625 -6.109375 -5.765625 L -6.578125 -5.21875 L -7.09375 -5.515625 L -5.59375 -8.0625 L 1.0625 -6.6875 L 0.96875 -6.796875 L -3.328125 -11.953125 L -1.859375 -14.484375 L -1.34375 -14.1875 L -1.640625 -13.421875 C -1.703125 -13.285156 -1.707031 -13.171875 -1.65625 -13.078125 C -1.601562 -12.984375 -1.472656 -12.878906 -1.265625 -12.765625 L 4.28125 -9.96875 C 4.46875 -9.851562 4.609375 -9.800781 4.703125 -9.8125 C 4.796875 -9.832031 4.898438 -9.898438 5.015625 -10.015625 L 5.484375 -10.640625 L 6.015625 -10.328125 L 4.203125 -7.1875 L 3.671875 -7.5 L 3.96875 -8.234375 C 4.03125 -8.390625 4.035156 -8.507812 3.984375 -8.59375 C 3.941406 -8.6875 3.816406 -8.789062 3.609375 -8.90625 L -2.15625 -11.8125 L -2.234375 -11.859375 L 2.171875 -6.546875 L 1.53125 -5.453125 L -5.234375 -6.734375 L -5.15625 -6.6875 L 0.28125 -3.09375 C 0.457031 -2.976562 0.585938 -2.921875 0.671875 -2.921875 C 0.765625 -2.929688 0.875 -3.003906 1 -3.140625 L 1.453125 -3.71875 L 1.984375 -3.40625 Z M 0.40625 -0.6875 "/></g></g></g><g fill="#000000" fill-opacity="1"><g transform="translate(294.726169, 235.07017)"><g><path d="M 0.328125 -0.703125 L -0.21875 -0.953125 L 0 -1.734375 C 0.0507812 -1.890625 0.0507812 -2.003906 0 -2.078125 C -0.0625 -2.160156 -0.203125 -2.253906 -0.421875 -2.359375 L -6.046875 -4.953125 C -6.242188 -5.046875 -6.382812 -5.082031 -6.46875 -5.0625 C -6.5625 -5.050781 -6.664062 -4.972656 -6.78125 -4.828125 L -7.203125 -4.1875 L -7.765625 -4.4375 L -6.25 -7.734375 L -5.6875 -7.484375 L -5.90625 -6.703125 C -5.945312 -6.554688 -5.9375 -6.441406 -5.875 -6.359375 C -5.820312 -6.273438 -5.691406 -6.1875 -5.484375 -6.09375 L 0.15625 -3.5 C 0.351562 -3.40625 0.492188 -3.363281 0.578125 -3.375 C 0.671875 -3.394531 0.769531 -3.472656 0.875 -3.609375 L 1.296875 -4.25 L 1.84375 -4 Z M 0.328125 -0.703125 "/></g></g></g><g fill="#000000" fill-opacity="1"><g transform="translate(297.834516, 228.243875)"><g><path d="M 1.5625 -3.703125 C 1.414062 -3.296875 1.195312 -2.925781 0.90625 -2.59375 C 0.625 -2.257812 0.316406 -2.015625 -0.015625 -1.859375 L 0.609375 -1.40625 L 0.421875 -0.875 L -2.25 -1.609375 L -2.0625 -2.3125 C -1.3125 -2.300781 -0.695312 -2.429688 -0.21875 -2.703125 C 0.257812 -2.984375 0.601562 -3.398438 0.8125 -3.953125 C 0.9375 -4.285156 0.984375 -4.585938 0.953125 -4.859375 C 0.929688 -5.128906 0.84375 -5.363281 0.6875 -5.5625 C 0.53125 -5.757812 0.3125 -5.910156 0.03125 -6.015625 C -0.414062 -6.179688 -0.820312 -6.175781 -1.1875 -6 C -1.550781 -5.820312 -1.976562 -5.425781 -2.46875 -4.8125 C -2.863281 -4.289062 -3.242188 -3.890625 -3.609375 -3.609375 C -3.972656 -3.335938 -4.332031 -3.175781 -4.6875 -3.125 C -5.050781 -3.082031 -5.4375 -3.140625 -5.84375 -3.296875 C -6.1875 -3.421875 -6.472656 -3.597656 -6.703125 -3.828125 C -6.941406 -4.054688 -7.117188 -4.316406 -7.234375 -4.609375 C -7.347656 -4.910156 -7.398438 -5.238281 -7.390625 -5.59375 C -7.390625 -5.945312 -7.320312 -6.316406 -7.1875 -6.703125 C -7.0625 -7.023438 -6.878906 -7.320312 -6.640625 -7.59375 C -6.410156 -7.863281 -6.164062 -8.082031 -5.90625 -8.25 L -6.46875 -8.609375 L -6.25 -9.171875 L -3.75 -8.546875 L -3.90625 -7.84375 C -4.601562 -7.894531 -5.160156 -7.8125 -5.578125 -7.59375 C -6.003906 -7.375 -6.316406 -7.007812 -6.515625 -6.5 C -6.671875 -6.070312 -6.679688 -5.679688 -6.546875 -5.328125 C -6.410156 -4.984375 -6.140625 -4.734375 -5.734375 -4.578125 C -5.472656 -4.484375 -5.226562 -4.453125 -5 -4.484375 C -4.769531 -4.523438 -4.523438 -4.65625 -4.265625 -4.875 C -4.003906 -5.09375 -3.710938 -5.398438 -3.390625 -5.796875 C -3.054688 -6.191406 -2.742188 -6.519531 -2.453125 -6.78125 C -2.171875 -7.039062 -1.894531 -7.222656 -1.625 -7.328125 C -1.363281 -7.441406 -1.097656 -7.5 -0.828125 -7.5 C -0.566406 -7.507812 -0.28125 -7.453125 0.03125 -7.328125 C 0.53125 -7.140625 0.925781 -6.859375 1.21875 -6.484375 C 1.519531 -6.109375 1.703125 -5.675781 1.765625 -5.1875 C 1.828125 -4.707031 1.757812 -4.210938 1.5625 -3.703125 Z M 1.5625 -3.703125 "/></g></g></g><g fill="#000000" fill-opacity="1"><g transform="translate(301.251233, 218.889776)"><g><path d="M 0.21875 -0.75 L -0.375 -0.921875 L -0.28125 -1.65625 C -0.257812 -1.820312 -0.285156 -1.941406 -0.359375 -2.015625 C -0.429688 -2.085938 -0.582031 -2.15625 -0.8125 -2.21875 L -6.78125 -3.890625 C -6.988281 -3.953125 -7.140625 -3.96875 -7.234375 -3.9375 C -7.328125 -3.90625 -7.40625 -3.804688 -7.46875 -3.640625 L -7.765625 -3 L -8.359375 -3.15625 L -6.78125 -8.828125 L -4.640625 -8.71875 L -4.609375 -8.03125 C -5.085938 -7.988281 -5.457031 -7.921875 -5.71875 -7.828125 C -5.988281 -7.734375 -6.191406 -7.582031 -6.328125 -7.375 C -6.472656 -7.164062 -6.601562 -6.863281 -6.71875 -6.46875 L -7.046875 -5.265625 L -3.875 -4.375 L -3.578125 -5.453125 C -3.492188 -5.753906 -3.453125 -5.972656 -3.453125 -6.109375 C -3.453125 -6.253906 -3.507812 -6.378906 -3.625 -6.484375 C -3.75 -6.585938 -3.960938 -6.71875 -4.265625 -6.875 L -4.1875 -7.46875 L -1.390625 -6.6875 L -1.453125 -6.09375 C -1.796875 -6.125 -2.046875 -6.128906 -2.203125 -6.109375 C -2.359375 -6.097656 -2.476562 -6.023438 -2.5625 -5.890625 C -2.65625 -5.765625 -2.742188 -5.550781 -2.828125 -5.25 L -3.125 -4.171875 L 0.203125 -3.234375 L 0.65625 -4.828125 C 0.757812 -5.222656 0.800781 -5.539062 0.78125 -5.78125 C 0.757812 -6.019531 0.648438 -6.238281 0.453125 -6.4375 C 0.265625 -6.644531 -0.03125 -6.875 -0.4375 -7.125 L -0.25 -7.78125 L 1.921875 -6.859375 Z M 0.21875 -0.75 "/></g></g></g><g fill="#000000" fill-opacity="1"><g transform="translate(303.893452, 208.878889)"><g/></g></g><g fill="#000000" fill-opacity="1"><g transform="translate(304.91267, 204.184042)"><g><path d="M 0.109375 -0.765625 L -0.5 -0.859375 L -0.5 -1.625 C -0.5 -1.78125 -0.535156 -1.890625 -0.609375 -1.953125 C -0.679688 -2.015625 -0.835938 -2.066406 -1.078125 -2.109375 L -7.21875 -3.015625 C -7.4375 -3.046875 -7.585938 -3.035156 -7.671875 -2.984375 C -7.753906 -2.941406 -7.816406 -2.835938 -7.859375 -2.671875 L -8.09375 -1.96875 L -8.703125 -2.0625 L -7.84375 -7.890625 L -5.703125 -8.0625 L -5.59375 -7.390625 C -6.0625 -7.285156 -6.421875 -7.164062 -6.671875 -7.03125 C -6.921875 -6.90625 -7.101562 -6.734375 -7.21875 -6.515625 C -7.332031 -6.296875 -7.421875 -5.976562 -7.484375 -5.5625 L -7.65625 -4.34375 L -4.40625 -3.859375 L -4.25 -4.953125 C -4.207031 -5.265625 -4.191406 -5.488281 -4.203125 -5.625 C -4.222656 -5.757812 -4.296875 -5.867188 -4.421875 -5.953125 C -4.554688 -6.046875 -4.785156 -6.15625 -5.109375 -6.28125 L -5.109375 -6.859375 L -2.25 -6.4375 L -2.21875 -5.84375 C -2.5625 -5.84375 -2.804688 -5.820312 -2.953125 -5.78125 C -3.109375 -5.738281 -3.222656 -5.648438 -3.296875 -5.515625 C -3.367188 -5.378906 -3.425781 -5.15625 -3.46875 -4.84375 L -3.625 -3.75 L -0.21875 -3.234375 L 0.015625 -4.875 C 0.078125 -5.269531 0.0820312 -5.585938 0.03125 -5.828125 C -0.0078125 -6.078125 -0.140625 -6.285156 -0.359375 -6.453125 C -0.578125 -6.628906 -0.898438 -6.8125 -1.328125 -7 L -1.234375 -7.6875 L 1.03125 -7.046875 Z M 0.109375 -0.765625 "/></g></g></g><g fill="#000000" fill-opacity="1"><g transform="translate(306.390928, 193.775852)"><g><path d="M 0.03125 -0.78125 L -0.578125 -0.8125 L -0.640625 -1.5625 C -0.671875 -1.707031 -0.726562 -1.804688 -0.8125 -1.859375 C -0.894531 -1.921875 -1.050781 -1.957031 -1.28125 -1.96875 L -7.46875 -2.265625 C -7.6875 -2.273438 -7.832031 -2.253906 -7.90625 -2.203125 C -7.988281 -2.160156 -8.046875 -2.054688 -8.078125 -1.890625 L -8.25 -1.171875 L -8.859375 -1.203125 L -8.71875 -4.03125 L -1.265625 -7.890625 L -1.375 -7.890625 L -7.1875 -8.171875 C -7.40625 -8.179688 -7.550781 -8.160156 -7.625 -8.109375 C -7.707031 -8.066406 -7.765625 -7.960938 -7.796875 -7.796875 L -7.96875 -7.109375 L -8.578125 -7.140625 L -8.421875 -10.234375 L -7.8125 -10.203125 L -7.71875 -9.484375 C -7.707031 -9.316406 -7.660156 -9.207031 -7.578125 -9.15625 C -7.503906 -9.101562 -7.347656 -9.070312 -7.109375 -9.0625 L 0.40625 -8.703125 L 0.34375 -7.390625 L -7.609375 -3.171875 L -7.5 -3.15625 L -1.203125 -2.859375 C -0.984375 -2.847656 -0.832031 -2.867188 -0.75 -2.921875 C -0.675781 -2.972656 -0.613281 -3.078125 -0.5625 -3.234375 L -0.421875 -3.953125 L 0.1875 -3.921875 Z M 0.03125 -0.78125 "/></g></g></g><g fill="#000000" fill-opacity="1"><g transform="translate(306.763175, 180.863106)"><g/></g></g><g fill="#000000" fill-opacity="1"><g transform="translate(306.645234, 176.065443)"><g><path d="M -0.0625 -0.78125 L -0.671875 -0.734375 L -0.859375 -1.46875 C -0.898438 -1.625 -0.960938 -1.722656 -1.046875 -1.765625 C -1.140625 -1.804688 -1.304688 -1.816406 -1.546875 -1.796875 L -7.71875 -1.25 C -7.9375 -1.226562 -8.082031 -1.179688 -8.15625 -1.109375 C -8.226562 -1.046875 -8.269531 -0.929688 -8.28125 -0.765625 L -8.328125 -0.03125 L -8.9375 0.015625 L -9.484375 -5.984375 L -7.25 -6.65625 L -6.953125 -6 C -7.453125 -5.769531 -7.820312 -5.554688 -8.0625 -5.359375 C -8.3125 -5.171875 -8.46875 -4.957031 -8.53125 -4.71875 C -8.601562 -4.476562 -8.625 -4.15625 -8.59375 -3.75 L -8.46875 -2.421875 L -4.9375 -2.734375 L -5.046875 -3.84375 C -5.066406 -4.15625 -5.097656 -4.382812 -5.140625 -4.53125 C -5.191406 -4.675781 -5.296875 -4.769531 -5.453125 -4.8125 C -5.609375 -4.863281 -5.847656 -4.90625 -6.171875 -4.9375 L -6.3125 -5.5 L -3.171875 -5.78125 L -3.015625 -5.21875 C -3.429688 -5.125 -3.726562 -5.035156 -3.90625 -4.953125 C -4.09375 -4.878906 -4.203125 -4.765625 -4.234375 -4.609375 C -4.265625 -4.460938 -4.269531 -4.234375 -4.25 -3.921875 L -4.140625 -2.8125 L -1.625 -3.03125 C -1.394531 -3.050781 -1.238281 -3.097656 -1.15625 -3.171875 C -1.070312 -3.253906 -1.035156 -3.390625 -1.046875 -3.578125 L -1.015625 -4.484375 L -0.40625 -4.53125 Z M -0.0625 -0.78125 "/></g></g></g><g fill="#000000" fill-opacity="1"><g transform="translate(305.660901, 165.902134)"><g><path d="M -0.703125 -4.765625 C -0.554688 -3.941406 -0.601562 -3.1875 -0.84375 -2.5 C -1.09375 -1.8125 -1.515625 -1.238281 -2.109375 -0.78125 C -2.703125 -0.320312 -3.4375 -0.0078125 -4.3125 0.15625 C -5.03125 0.289062 -5.695312 0.3125 -6.3125 0.21875 C -6.925781 0.125 -7.476562 -0.0625 -7.96875 -0.34375 C -8.457031 -0.632812 -8.859375 -1.019531 -9.171875 -1.5 C -9.484375 -1.976562 -9.695312 -2.539062 -9.8125 -3.1875 C -9.96875 -3.988281 -9.921875 -4.722656 -9.671875 -5.390625 C -9.421875 -6.066406 -9.003906 -6.632812 -8.421875 -7.09375 C -7.835938 -7.550781 -7.113281 -7.859375 -6.25 -8.015625 C -5.300781 -8.191406 -4.4375 -8.171875 -3.65625 -7.953125 C -2.875 -7.742188 -2.222656 -7.363281 -1.703125 -6.8125 C -1.191406 -6.269531 -0.859375 -5.585938 -0.703125 -4.765625 Z M -1.5625 -4.75 C -1.71875 -5.613281 -2.148438 -6.210938 -2.859375 -6.546875 C -3.578125 -6.878906 -4.539062 -6.929688 -5.75 -6.703125 C -6.539062 -6.554688 -7.191406 -6.316406 -7.703125 -5.984375 C -8.222656 -5.660156 -8.59375 -5.257812 -8.8125 -4.78125 C -9.039062 -4.3125 -9.097656 -3.773438 -8.984375 -3.171875 C -8.828125 -2.304688 -8.382812 -1.691406 -7.65625 -1.328125 C -6.9375 -0.972656 -5.992188 -0.90625 -4.828125 -1.125 C -4.046875 -1.269531 -3.390625 -1.507812 -2.859375 -1.84375 C -2.335938 -2.1875 -1.960938 -2.609375 -1.734375 -3.109375 C -1.503906 -3.609375 -1.445312 -4.15625 -1.5625 -4.75 Z M -1.5625 -4.75 "/></g></g></g><g fill="#000000" fill-opacity="1"><g transform="translate(303.330933, 154.051451)"><g><path d="M -1.953125 -7.34375 C -1.867188 -7.050781 -1.84375 -6.785156 -1.875 -6.546875 C -1.90625 -6.316406 -2.007812 -6.085938 -2.1875 -5.859375 C -2.375 -5.628906 -2.640625 -5.367188 -2.984375 -5.078125 L -4.21875 -4.09375 C -4.5 -3.875 -4.703125 -3.679688 -4.828125 -3.515625 C -4.953125 -3.359375 -5.023438 -3.203125 -5.046875 -3.046875 C -5.066406 -2.898438 -5.039062 -2.703125 -4.96875 -2.453125 C -4.90625 -2.253906 -4.84375 -2.078125 -4.78125 -1.921875 L -2.1875 -2.671875 C -1.957031 -2.734375 -1.8125 -2.804688 -1.75 -2.890625 C -1.6875 -2.984375 -1.671875 -3.125 -1.703125 -3.3125 L -1.84375 -4.1875 L -1.265625 -4.359375 L -0.21875 -0.75 L -0.796875 -0.578125 L -1.109375 -1.265625 C -1.191406 -1.410156 -1.273438 -1.492188 -1.359375 -1.515625 C -1.453125 -1.546875 -1.617188 -1.523438 -1.859375 -1.453125 L -7.8125 0.265625 C -8.019531 0.328125 -8.148438 0.394531 -8.203125 0.46875 C -8.253906 0.539062 -8.273438 0.664062 -8.265625 0.84375 L -8.1875 1.5625 L -8.765625 1.734375 L -9.65625 -1.34375 C -9.863281 -2.050781 -9.953125 -2.671875 -9.921875 -3.203125 C -9.898438 -3.742188 -9.765625 -4.1875 -9.515625 -4.53125 C -9.265625 -4.875 -8.898438 -5.117188 -8.421875 -5.265625 C -8.160156 -5.335938 -7.890625 -5.359375 -7.609375 -5.328125 C -7.335938 -5.296875 -7.078125 -5.210938 -6.828125 -5.078125 C -6.578125 -4.941406 -6.34375 -4.765625 -6.125 -4.546875 C -5.90625 -4.328125 -5.722656 -4.070312 -5.578125 -3.78125 L -5.546875 -3.796875 C -5.546875 -4.128906 -5.488281 -4.414062 -5.375 -4.65625 C -5.257812 -4.894531 -5.066406 -5.125 -4.796875 -5.34375 L -3.921875 -6.0625 C -3.671875 -6.269531 -3.457031 -6.453125 -3.28125 -6.609375 C -3.113281 -6.765625 -2.992188 -6.921875 -2.921875 -7.078125 C -2.859375 -7.242188 -2.859375 -7.4375 -2.921875 -7.65625 C -2.941406 -7.738281 -2.972656 -7.816406 -3.015625 -7.890625 C -3.054688 -7.960938 -3.113281 -8.0625 -3.1875 -8.1875 L -2.78125 -8.421875 C -2.582031 -8.304688 -2.410156 -8.15625 -2.265625 -7.96875 C -2.117188 -7.789062 -2.015625 -7.582031 -1.953125 -7.34375 Z M -5.578125 -2.421875 C -5.710938 -2.859375 -5.894531 -3.207031 -6.125 -3.46875 C -6.351562 -3.738281 -6.625 -3.914062 -6.9375 -4 C -7.257812 -4.09375 -7.601562 -4.085938 -7.96875 -3.984375 C -8.53125 -3.816406 -8.890625 -3.53125 -9.046875 -3.125 C -9.210938 -2.71875 -9.1875 -2.15625 -8.96875 -1.4375 L -8.78125 -0.75 L -5.421875 -1.734375 C -5.453125 -1.890625 -5.476562 -2.019531 -5.5 -2.125 C -5.53125 -2.238281 -5.554688 -2.335938 -5.578125 -2.421875 Z M -5.578125 -2.421875 "/></g></g></g><g fill="#000000" fill-opacity="1"><g transform="translate(300.032318, 142.831616)"><g><path d="M -0.3125 -0.734375 L -0.875 -0.5 L -1.25 -1.125 C -1.34375 -1.28125 -1.445312 -1.351562 -1.5625 -1.34375 C -1.6875 -1.34375 -1.832031 -1.304688 -2 -1.234375 L -7.875 0.796875 C -8.082031 0.878906 -8.207031 0.957031 -8.25 1.03125 C -8.300781 1.113281 -8.3125 1.238281 -8.28125 1.40625 L -8.109375 2.109375 L -8.671875 2.34375 L -9.8125 -0.390625 L -4.703125 -4.875 L -4.828125 -4.875 L -11.546875 -4.53125 L -12.6875 -7.25 L -12.125 -7.484375 L -11.703125 -6.78125 C -11.628906 -6.65625 -11.539062 -6.582031 -11.4375 -6.5625 C -11.332031 -6.550781 -11.171875 -6.59375 -10.953125 -6.6875 L -5.375 -9.421875 C -5.175781 -9.503906 -5.050781 -9.585938 -5 -9.671875 C -4.957031 -9.753906 -4.945312 -9.878906 -4.96875 -10.046875 L -5.171875 -10.796875 L -4.609375 -11.03125 L -3.21875 -7.6875 L -3.78125 -7.453125 L -4.171875 -8.140625 C -4.265625 -8.273438 -4.359375 -8.347656 -4.453125 -8.359375 C -4.554688 -8.378906 -4.71875 -8.34375 -4.9375 -8.25 L -10.71875 -5.40625 L -10.8125 -5.375 L -3.9375 -5.6875 L -3.4375 -4.515625 L -8.546875 0.109375 L -8.453125 0.078125 L -2.296875 -2.078125 C -2.097656 -2.148438 -1.972656 -2.222656 -1.921875 -2.296875 C -1.878906 -2.378906 -1.867188 -2.507812 -1.890625 -2.6875 L -2.078125 -3.40625 L -1.515625 -3.640625 Z M -0.3125 -0.734375 "/></g></g></g><g fill="#000000" fill-opacity="1"><g transform="translate(293.932071, 128.908941)"><g><path d="M -0.375 -0.6875 L -0.90625 -0.390625 L -1.359375 -1 C -1.472656 -1.113281 -1.578125 -1.175781 -1.671875 -1.1875 C -1.765625 -1.195312 -1.914062 -1.140625 -2.125 -1.015625 L -7.5625 1.96875 C -7.75 2.070312 -7.863281 2.171875 -7.90625 2.265625 C -7.945312 2.359375 -7.9375 2.484375 -7.875 2.640625 L -7.640625 3.3125 L -8.171875 3.609375 L -11.015625 -1.546875 L -9.4375 -2.953125 L -8.90625 -2.484375 C -9.226562 -2.117188 -9.453125 -1.8125 -9.578125 -1.5625 C -9.703125 -1.3125 -9.742188 -1.0625 -9.703125 -0.8125 C -9.660156 -0.5625 -9.535156 -0.253906 -9.328125 0.109375 L -8.734375 1.1875 L -5.84375 -0.40625 L -6.375 -1.375 C -6.53125 -1.644531 -6.65625 -1.828125 -6.75 -1.921875 C -6.84375 -2.023438 -6.96875 -2.070312 -7.125 -2.0625 C -7.289062 -2.050781 -7.535156 -2 -7.859375 -1.90625 L -8.21875 -2.375 L -5.6875 -3.765625 L -5.3125 -3.3125 C -5.582031 -3.101562 -5.765625 -2.9375 -5.859375 -2.8125 C -5.960938 -2.6875 -6 -2.546875 -5.96875 -2.390625 C -5.9375 -2.234375 -5.84375 -2.019531 -5.6875 -1.75 L -5.15625 -0.78125 L -2.140625 -2.453125 L -2.9375 -3.90625 C -3.132812 -4.257812 -3.320312 -4.515625 -3.5 -4.671875 C -3.6875 -4.828125 -3.914062 -4.910156 -4.1875 -4.921875 C -4.46875 -4.929688 -4.835938 -4.878906 -5.296875 -4.765625 L -5.625 -5.375 L -3.4375 -6.234375 Z M -0.375 -0.6875 "/></g></g></g><g clip-path="url(#c27447ffd6)"><path fill="#000000" d="M 151.4375 110.164062 C 151.4375 110.164062 199.433594 121.917969 199.433594 156.203125 C 198.125 179.710938 174.066406 208.449219 168.3125 216.34375 C 162.558594 224.234375 144.441406 245.761719 150.410156 280.082031 C 151.6875 265.589844 158.085938 244.910156 181.527344 226.148438 C 204.972656 207.386719 234.015625 181.324219 211.214844 140.488281 C 191.570312 106.246094 151.4375 110.164062 151.4375 110.164062 Z M 151.4375 110.164062 " fill-opacity="1" fill-rule="nonzero"/></g><g clip-path="url(#70cd56ce39)"><path fill="#000000" d="M 226.515625 114.0625 C 226.515625 114.949219 226.429688 115.828125 226.253906 116.699219 C 226.082031 117.570312 225.824219 118.417969 225.488281 119.238281 C 225.148438 120.058594 224.730469 120.835938 224.238281 121.574219 C 223.742188 122.3125 223.183594 122.996094 222.554688 123.621094 C 221.929688 124.25 221.246094 124.808594 220.507812 125.304688 C 219.769531 125.796875 218.988281 126.214844 218.171875 126.554688 C 217.351562 126.894531 216.503906 127.148438 215.632812 127.320312 C 214.761719 127.496094 213.882812 127.582031 212.996094 127.582031 C 212.109375 127.582031 211.230469 127.496094 210.359375 127.320312 C 209.488281 127.148438 208.644531 126.894531 207.824219 126.554688 C 207.003906 126.214844 206.222656 125.796875 205.484375 125.304688 C 204.746094 124.808594 204.066406 124.25 203.4375 123.621094 C 202.808594 122.996094 202.25 122.3125 201.757812 121.574219 C 201.261719 120.835938 200.847656 120.058594 200.507812 119.238281 C 200.167969 118.417969 199.910156 117.570312 199.738281 116.699219 C 199.5625 115.828125 199.476562 114.949219 199.476562 114.0625 C 199.476562 113.175781 199.5625 112.296875 199.738281 111.425781 C 199.910156 110.554688 200.167969 109.710938 200.507812 108.890625 C 200.847656 108.070312 201.261719 107.289062 201.757812 106.550781 C 202.25 105.8125 202.808594 105.132812 203.4375 104.503906 C 204.066406 103.875 204.746094 103.316406 205.484375 102.824219 C 206.222656 102.328125 207.003906 101.914062 207.824219 101.574219 C 208.644531 101.234375 209.488281 100.976562 210.359375 100.804688 C 211.230469 100.632812 212.109375 100.542969 212.996094 100.542969 C 213.882812 100.542969 214.761719 100.632812 215.632812 100.804688 C 216.503906 100.976562 217.351562 101.234375 218.171875 101.574219 C 218.988281 101.914062 219.769531 102.328125 220.507812 102.824219 C 221.246094 103.316406 221.929688 103.875 222.554688 104.503906 C 223.183594 105.132812 223.742188 105.8125 224.238281 106.550781 C 224.730469 107.289062 225.148438 108.070312 225.488281 108.890625 C 225.824219 109.710938 226.082031 110.554688 226.253906 111.425781 C 226.429688 112.296875 226.515625 113.175781 226.515625 114.0625 Z M 226.515625 114.0625 " fill-opacity="1" fill-rule="nonzero"/></g></svg>